<svg width="48" height="49" viewBox="0 0 48 49" xmlns="http://www.w3.org/2000/svg">
<path d="M14.4524 6.28593C14.3609 6.1953 14.2522 6.12339 14.1326 6.07432C14.0129 6.02526 13.8846 6 13.7551 6C13.6255 6 13.4972 6.02526 13.3776 6.07432C13.2579 6.12339 13.1493 6.1953 13.0578 6.28593L7.83406 11.4149L5.97195 9.62286C5.8805 9.53223 5.77183 9.46032 5.65218 9.41125C5.53253 9.36218 5.40424 9.33693 5.27468 9.33693C5.14513 9.33693 5.01684 9.36218 4.89719 9.41125C4.77754 9.46032 4.66887 9.53223 4.57742 9.62286L3.28953 10.8964C3.19776 10.9867 3.12494 11.094 3.07526 11.2122C3.02558 11.3304 3 11.457 3 11.585C3 11.7129 3.02558 11.8396 3.07526 11.9578C3.12494 12.076 3.19776 12.1833 3.28953 12.2736L7.1934 16.1136C7.38826 16.2965 7.64683 16.3986 7.91568 16.3986C8.18453 16.3986 8.44311 16.2965 8.63797 16.1136L9.91684 14.8482L15.8395 8.99987C16.024 8.81748 16.1283 8.57059 16.1297 8.31276C16.1311 8.05492 16.0295 7.80695 15.8469 7.62265L14.4524 6.28593ZM14.4524 19.1824C14.3609 19.0918 14.2522 19.0198 14.1326 18.9708C14.0129 18.9217 13.8846 18.8965 13.7551 18.8965C13.6255 18.8965 13.4972 18.9217 13.3776 18.9708C13.2579 19.0198 13.1493 19.0918 13.0578 19.1824L7.83406 24.3445L5.97195 22.5542C5.8805 22.4635 5.77183 22.3916 5.65218 22.3425C5.53253 22.2935 5.40424 22.2682 5.27468 22.2682C5.14513 22.2682 5.01684 22.2935 4.89719 22.3425C4.77754 22.3916 4.66887 22.4635 4.57742 22.5542L3.28953 23.8252C3.19776 23.9156 3.12494 24.0229 3.07526 24.141C3.02558 24.2592 3 24.3859 3 24.5139C3 24.6418 3.02558 24.7685 3.07526 24.8867C3.12494 25.0048 3.19776 25.1121 3.28953 25.2025L7.18355 29.0506C7.37828 29.2335 7.63672 29.3354 7.90543 29.3354C8.17414 29.3354 8.43258 29.2335 8.62731 29.0506L9.9152 27.7795L15.8379 21.9287C16.0217 21.7476 16.1256 21.5021 16.127 21.2457C16.1284 20.9892 16.0271 20.7426 15.8452 20.5596L14.4524 19.1824ZM8.24996 33.2228C6.07695 33.2228 4.26406 34.9645 4.26406 37.1114C4.26406 39.2582 6.07859 41 8.24996 41C9.29425 41 10.2958 40.5903 11.0342 39.861C11.7726 39.1318 12.1875 38.1427 12.1875 37.1114C12.1875 36.08 11.7726 35.091 11.0342 34.3617C10.2958 33.6324 9.29425 33.2228 8.24996 33.2228ZM43.6875 34.519H20.0625C19.7144 34.519 19.3805 34.6555 19.1344 34.8986C18.8883 35.1417 18.75 35.4714 18.75 35.8152V38.4076C18.75 38.7514 18.8883 39.0811 19.1344 39.3241C19.3805 39.5672 19.7144 39.7038 20.0625 39.7038H43.6875C44.0356 39.7038 44.3694 39.5672 44.6156 39.3241C44.8617 39.0811 45 38.7514 45 38.4076V35.8152C45 35.4714 44.8617 35.1417 44.6156 34.8986C44.3694 34.6555 44.0356 34.519 43.6875 34.519ZM43.6875 8.5948H20.0625C19.7144 8.5948 19.3805 8.73137 19.1344 8.97445C18.8883 9.21754 18.75 9.54724 18.75 9.89101V12.4834C18.75 12.8272 18.8883 13.1569 19.1344 13.4C19.3805 13.6431 19.7144 13.7796 20.0625 13.7796H43.6875C44.0356 13.7796 44.3694 13.6431 44.6156 13.4C44.8617 13.1569 45 12.8272 45 12.4834V9.89101C45 9.54724 44.8617 9.21754 44.6156 8.97445C44.3694 8.73137 44.0356 8.5948 43.6875 8.5948V8.5948ZM43.6875 21.5569H20.0625C19.7144 21.5569 19.3805 21.6934 19.1344 21.9365C18.8883 22.1796 18.75 22.5093 18.75 22.8531V25.4455C18.75 25.7893 18.8883 26.119 19.1344 26.3621C19.3805 26.6052 19.7144 26.7417 20.0625 26.7417H43.6875C44.0356 26.7417 44.3694 26.6052 44.6156 26.3621C44.8617 26.119 45 25.7893 45 25.4455V22.8531C45 22.5093 44.8617 22.1796 44.6156 21.9365C44.3694 21.6934 44.0356 21.5569 43.6875 21.5569Z" />
</svg>
