<svg xmlns="http://www.w3.org/2000/svg" width="48" height="48" viewBox="0 0 48 48">
    <path d="M38.5 15.6875C38.5 12.407 35.843 9.75 32.5625 9.75C29.282 9.75 26.625 12.407 26.625 15.6875C26.625 18.3891 28.4285 20.6676 30.8926 21.3875C30.848 22.5824 30.5809 23.5027 30.0762 24.1262C28.9332 25.5512 26.4172 25.7887 23.7527 26.0336C21.6598 26.2266 19.4926 26.4344 17.7188 27.2879V16.6004C20.1309 15.8434 21.875 13.5945 21.875 10.9375C21.875 7.65703 19.218 5 15.9375 5C12.657 5 10 7.65703 10 10.9375C10 13.5945 11.7441 15.8434 14.1562 16.6004V31.3922C11.7441 32.1566 10 34.4055 10 37.0625C10 40.343 12.657 43 15.9375 43C19.218 43 21.875 40.343 21.875 37.0625C21.875 34.5391 20.3016 32.3793 18.075 31.5258C18.3051 31.1398 18.6539 30.7984 19.1809 30.5312C20.3832 29.9227 22.1793 29.7594 24.0867 29.5813C27.2188 29.2918 30.7664 28.9578 32.8594 26.3602C33.8984 25.0687 34.4254 23.4062 34.4625 21.3207C36.8078 20.5191 38.5 18.3 38.5 15.6875ZM15.9375 9.75C16.5906 9.75 17.125 10.2844 17.125 10.9375C17.125 11.5906 16.5906 12.125 15.9375 12.125C15.2844 12.125 14.75 11.5906 14.75 10.9375C14.75 10.2844 15.2844 9.75 15.9375 9.75ZM15.9375 38.25C15.2844 38.25 14.75 37.7156 14.75 37.0625C14.75 36.4094 15.2844 35.875 15.9375 35.875C16.5906 35.875 17.125 36.4094 17.125 37.0625C17.125 37.7156 16.5906 38.25 15.9375 38.25ZM32.5625 14.5C33.2156 14.5 33.75 15.0344 33.75 15.6875C33.75 16.3406 33.2156 16.875 32.5625 16.875C31.9094 16.875 31.375 16.3406 31.375 15.6875C31.375 15.0344 31.9094 14.5 32.5625 14.5Z"/>
</svg>
