<svg width="48" height="49" viewBox="0 0 48 49" xmlns="http://www.w3.org/2000/svg">
<g clip-path="url(#clip0)">
<path d="M43 18.4063C43 25.8104 37.1517 31.8125 29.9375 31.8125C29.1048 31.8125 28.2906 31.7316 27.5011 31.5787L25.719 33.6364C25.5519 33.8294 25.3468 33.9838 25.1174 34.0896C24.8879 34.1953 24.6392 34.25 24.3876 34.25H21.625V37.2969C21.625 38.3065 20.8275 39.125 19.8438 39.125H16.875V42.1719C16.875 43.1815 16.0775 44 15.0938 44H6.78125C5.79748 44 5 43.1815 5 42.1719V36.226C5 35.7411 5.1877 35.2761 5.52168 34.9333L17.5304 22.6085C17.1057 21.2866 16.875 19.8742 16.875 18.4062C16.875 11.0022 22.7232 5.00008 29.9374 5C37.1729 4.99992 43 10.9803 43 18.4063ZM29.9375 14.75C29.9375 16.7693 31.5325 18.4062 33.5 18.4062C35.4675 18.4062 37.0625 16.7693 37.0625 14.75C37.0625 12.7307 35.4675 11.0938 33.5 11.0938C31.5325 11.0938 29.9375 12.7307 29.9375 14.75Z" />
</g>
</svg>
