<svg width="48" height="48" viewBox="0 0 48 48" fill="none" xmlns="http://www.w3.org/2000/svg">
<path d="M12.0995 30.0679C10.3347 28.289 10.3417 25.3898 12.1151 23.6021L16.2635 19.4205L14.3026 17.4439L10.1542 21.6255C7.29179 24.5108 7.28053 29.1829 10.129 32.0542C12.9775 34.9255 17.6125 34.9141 20.4748 32.0288L24.6232 27.8472L22.6623 25.8706L18.5139 30.0522C16.7405 31.8398 13.8644 31.8469 12.0995 30.0679ZM17.3837 26.8221L25.6805 18.4588L23.6164 16.3782L15.3196 24.7414L17.3837 26.8221ZM20.5252 11.1714L16.3768 15.3531L18.3377 17.3297L22.4861 13.1481C24.2595 11.3604 27.1357 11.3534 28.9005 13.1323C30.6653 14.9113 30.6583 17.8105 28.8849 19.5981L24.7365 23.7798L26.6974 25.7564L30.8458 21.5748C33.7082 18.6895 33.7195 14.0174 30.871 11.1461C28.0225 8.27476 23.3876 8.28612 20.5252 11.1714Z"/>
<path d="M33.7917 29.602L39.6667 29.602L39.6667 33.602L33.7917 33.602L33.7917 39.602L29.875 39.602L29.875 33.602L24 33.602L24 29.602L29.875 29.602L29.875 23.602L33.7917 23.602L33.7917 29.602Z"/>
</svg>
