<svg width="48" height="48" viewBox="0 0 48 48" fill="none" xmlns="http://www.w3.org/2000/svg">
<path d="M24.5102 13C30.1583 13 34.7422 17.48 34.7422 23C34.7422 24.3 34.4761 25.52 34.0055 26.66L39.9809 32.5C43.0709 29.98 45.5061 26.72 47 23C43.4598 14.22 34.7217 8 24.4898 8C21.6248 8 18.8827 8.5 16.3452 9.4L20.7653 13.72C21.9318 13.26 23.1801 13 24.5102 13ZM4.04638 7.54L8.71214 12.1L9.65348 13.02C6.25648 15.6 3.59618 19.04 2 23C5.54025 31.78 14.2783 38 24.5102 38C27.6821 38 30.7108 37.4 33.4734 36.32L34.3329 37.16L40.3288 43L42.9277 40.46L6.64529 5L4.04638 7.54ZM15.3629 18.6L18.5348 21.7C18.4325 22.12 18.3711 22.56 18.3711 23C18.3711 26.32 21.1132 29 24.5102 29C24.9604 29 25.4106 28.94 25.8404 28.84L29.0123 31.94C27.6412 32.6 26.1269 33 24.5102 33C18.8622 33 14.2783 28.52 14.2783 23C14.2783 21.42 14.6876 19.94 15.3629 18.6ZM24.1828 17.04L30.6289 23.34L30.6698 23.02C30.6698 19.7 27.9277 17.02 24.5307 17.02L24.1828 17.04Z"/>
</svg>
