<?xml version="1.0" standalone="no"?>
<!DOCTYPE svg PUBLIC "-//W3C//DTD SVG 20010904//EN"
 "http://www.w3.org/TR/2001/REC-SVG-20010904/DTD/svg10.dtd">
<svg version="1.0" xmlns="http://www.w3.org/2000/svg"
 width="180.000000pt" height="180.000000pt" viewBox="0 0 180.000000 180.000000"
 preserveAspectRatio="xMidYMid meet">

<g transform="translate(0.000000,180.000000) scale(0.100000,-0.100000)"
fill="#000000" stroke="none">
<path d="M412 1477 l-22 -23 0 -553 0 -552 25 -25 25 -25 469 3 c436 3 472 4
488 21 17 16 18 48 21 382 l3 365 -196 0 c-182 0 -196 1 -215 20 -19 19 -20
33 -20 215 l0 195 -278 0 c-278 0 -279 0 -300 -23z m743 -532 l0 -40 -250 0
-250 0 -3 28 c-7 59 -15 58 255 55 l248 -3 0 -40z m3 -172 l-3 -38 -250 0
-250 0 -3 38 -3 37 256 0 256 0 -3 -37z m-3 -168 l0 -40 -250 0 -250 0 -3 28
c-7 59 -15 58 255 55 l248 -3 0 -40z"/>
<path d="M1070 1315 l0 -155 155 0 c85 0 155 3 155 8 0 9 -293 302 -303 302
-4 0 -7 -70 -7 -155z"/>
</g>
</svg>
