<?xml version="1.0" encoding="UTF-8" standalone="no"?>
<svg xmlns="http://www.w3.org/2000/svg" version="1.1" viewBox="0 0 352.32063 472.79852">
  <g transform="translate(-413.4349,236.56433)">
    <polygon transform="matrix(10.216927,0,0,10.216927,237.11117,-332.2152)" style="fill:#ffffff" points="17.258,20.718 17.772,20.172 30.958,32.599 17.914,44.893 17.358,44.386"/>
    <path d="M 436.4668,0 19.5,417.04297 19.847656,417.42969 506.66992,876.2168 529.02734,897.30078 506.66992,918.38477 25.332031,1372.0352 440.05859,1786.9551 1331.6055,895.4082 Z" transform="matrix(0.26458333,0,0,0.26458333,413.4349,-236.56433)" style="fill:#504999;fill-opacity:1;stroke-width:38.6152"/>
    <polygon transform="matrix(10.216927,0,0,10.216927,237.11117,-332.2152)" style="fill:#c8c8c8" points="29.864,32.599 17.358,44.386 17.258,20.718"/>
    <polygon transform="matrix(10.216927,0,0,10.216927,237.11117,-332.2152)" points="31.847,41.483 27.743,35.628 18.807,44.052" style="fill:#38257a;fill-opacity:1"/>
  </g>
</svg>