<svg xmlns="http://www.w3.org/2000/svg" viewBox="0 0 48 48"><path fill="#FFF" d="M13.5 44h29c.275 0 .5-.225.5-.5V14h-8.5c-.827 0-1.5-.673-1.5-1.5V4H13.5c-.275 0-.5.225-.5.5v39c0 .275.225.5.5.5z"/><path fill="#FFF" d="M42.293 13L34 4.707V12.5c0 .275.225.5.5.5h7.793z"/><path opacity=".64" fill="#605E5C" d="M43.56 12.854l-9.414-9.415A1.51 1.51 0 0033.086 3H13.5c-.827 0-1.5.673-1.5 1.5v39c0 .827.673 1.5 1.5 1.5h29c.827 0 1.5-.673 1.5-1.5V13.914c0-.4-.156-.777-.44-1.06zM34 4.707L42.293 13H34.5a.501.501 0 01-.5-.5V4.707zM42.5 44h-29a.501.501 0 01-.5-.5v-39c0-.275.225-.5.5-.5H33v8.5c0 .827.673 1.5 1.5 1.5H43v29.5c0 .275-.225.5-.5.5z"/><path fill="#103F91" d="M39.5 30H28v1h11.5a.5.5 0 000-1z"/><path fill="#185ABD" d="M39.5 27H28v1h11.5a.5.5 0 000-1z"/><path fill="#2B7CD3" d="M39.5 24H28v1h11.5a.5.5 0 000-1z"/><path fill="#41A5EE" d="M39.5 21H28v1h11.5a.5.5 0 000-1z"/><path fill="#185ABD" d="M6 37h18a2 2 0 002-2V17a2 2 0 00-2-2H6a2 2 0 00-2 2v18a2 2 0 002 2z"/><path fill="#F9F7F7" d="M11.829 29.322c.033.262.055.49.065.684h.038a11.577 11.577 0 01.214-1.328L13.921 21h2.295l1.836 7.564c.092.373.168.848.23 1.426h.03c.026-.399.09-.859.191-1.38l1.47-7.61h2.088l-2.57 11H17.05l-1.752-7.287c-.051-.21-.109-.484-.172-.822s-.103-.583-.119-.736h-.03c-.02.18-.06.446-.119.798-.059.354-.106.613-.141.783L13.072 32h-2.479L8 21h2.127l1.598 7.694c.036.159.07.369.104.628z"/></svg>