<?xml version="1.0" encoding="UTF-8" standalone="no"?>
<svg
   height="16"
   width="16"
   viewBox="0 0 16 16"
   version="1.0"
   id="svg4"
   xmlns="http://www.w3.org/2000/svg"
   xmlns:svg="http://www.w3.org/2000/svg">
  <defs
     id="defs8" />
  <path
     fill="#FFF"
     d="M 2.8964601,14.978042 H 13.04601 c 0.09625,0 0.174992,-0.07874 0.174992,-0.174992 V 4.4785075 h -2.974868 c -0.2894366,0 -0.5249766,-0.2355395 -0.5249766,-0.5249766 V 0.978663 H 2.8964601 c -0.096246,0 -0.1749918,0.078747 -0.1749918,0.1749923 V 14.80305 c 0,0.09624 0.078744,0.174992 0.1749918,0.174992 z"
     id="path2-3"
     style="fill:#185abd;fill-opacity:1;stroke-width:0.349985" />
  <path
     fill="#FFF"
     d="M 12.994965,4.1285239 10.092544,1.226102 v 2.7274289 c 0,0.096246 0.07875,0.174993 0.174992,0.174993 z"
     id="path4"
     style="fill:#185abd;fill-opacity:1;stroke-width:0.349985" />
  <path
     opacity="0.64"
     fill="#605E5C"
     d="M 7.2823331,19.436727 4.6025028,16.756612 A 0.42984317,0.42984317 0 0 0 4.3007586,16.631644 h -5.5754361 c -0.2354172,0 -0.4269963,0.191579 -0.4269963,0.426997 v 11.10191 c 0,0.235417 0.1915791,0.426996 0.4269963,0.426996 h 8.2552664 c 0.2354172,0 0.4269963,-0.191579 0.4269963,-0.426996 v -8.42208 c 0,-0.113865 -0.044408,-0.221184 -0.1252521,-0.301744 z m -2.721391,-2.31916 2.3607212,2.360721 H 4.7032738 A 0.14261684,0.14261684 0 0 1 4.5609421,19.335956 Z m 2.4196468,11.185315 h -8.2552664 a 0.14261684,0.14261684 0 0 1 -0.1423317,-0.142331 v -11.10191 c 0,-0.07828 0.064049,-0.142332 0.1423317,-0.142332 h 5.550955 v 2.419647 c 0,0.235417 0.1915791,0.426996 0.4269963,0.426996 h 2.4196474 v 8.397599 c 0,0.07828 -0.06405,0.142331 -0.1423323,0.142331 z"
     id="path6"
     style="fill:#ffffff;stroke-width:0.284665" />
  <path
     opacity="0.64"
     fill="#605E5C"
     d="M 2.5375895,4.1071009 -0.7887171,0.78044144 A 0.53353759,0.53353759 0 0 0 -1.1632534,0.6253268 h -6.920442 c -0.2922093,0 -0.5300045,0.23779498 -0.5300045,0.530004 V 14.935441 c 0,0.292209 0.2377952,0.530004 0.5300045,0.530004 H 2.1630532 c 0.292209,0 0.5300042,-0.237795 0.5300042,-0.530004 V 4.4816376 c 0,-0.1413344 -0.05512,-0.2745422 -0.1554679,-0.3745367 z M -0.84030409,1.2284714 2.0899126,4.1586885 H -0.66363603 A 0.17702141,0.17702141 0 0 1 -0.84030409,3.98202 Z M 2.1630532,15.112108 H -8.0836954 A 0.17702141,0.17702141 0 0 1 -8.2603633,14.935441 V 1.1553308 c 0,-0.097167 0.079501,-0.17666772 0.1766679,-0.17666772 h 6.8900551 V 3.98202 c 0,0.2922093 0.23779522,0.5300045 0.53000427,0.5300045 H 2.3397212 V 14.935441 c 0,0.09717 -0.0795,0.176667 -0.176668,0.176667 z"
     id="path6-3"
     style="fill:#000000;fill-opacity:0;stroke-width:0.353337" />
  <path
     fill="#103F91"
     d="M 11.535653,12.938875 H 9.135688 V 13.214 h 2.399965 a 0.10434671,0.13756341 0 0 0 0,-0.275125 z"
     id="path8-8"
     style="fill:#f9f7f7;fill-opacity:1;stroke-width:0.239616" />
  <path
     fill="#185ABD"
     d="M 11.535653,12.000916 H 9.135688 v 0.275129 h 2.399965 a 0.10434758,0.13756451 0 0 0 0,-0.275129 z"
     id="path10-7"
     style="fill:#f9f7f7;fill-opacity:1;stroke-width:0.239616" />
  <path
     fill="#2B7CD3"
     d="M 11.535653,11.06296 H 9.135688 v 0.275124 h 2.399965 a 0.10434639,0.13756296 0 0 0 0,-0.275124 z"
     id="path12-9"
     style="fill:#f9f7f7;fill-opacity:1;stroke-width:0.239616" />
  <path
     fill="#41A5EE"
     d="M 11.535864,10.125 H 9.1407547 v 0.275126 h 2.3951093 a 0.10413532,0.137563 0 0 0 0,-0.275126 z"
     id="path14-2"
     style="fill:#f9f7f7;fill-opacity:1;stroke-width:0.239376" />
  <path
     fill="#f9f7f7"
     d="m 5.517298,12.414596 c 0.010014,0.0721 0.016695,0.134812 0.019723,0.188186 H 5.548562 A 3.5140805,3.1851311 0 0 1 5.613517,12.237415 L 6.1523014,10.125 h 0.6966243 l 0.5572986,2.081049 c 0.027927,0.102623 0.050994,0.233311 0.069816,0.392334 h 0.00911 c 0.00788,-0.109779 0.027319,-0.236337 0.057975,-0.379675 L 7.9893274,10.125 H 8.6231186 L 7.8430213,13.151382 H 7.102081 L 6.570279,11.146543 C 6.554796,11.088763 6.537195,11.013383 6.518073,10.920389 6.498948,10.827399 6.486809,10.759992 6.481951,10.717895 h -0.00912 c -0.00612,0.04954 -0.018209,0.122708 -0.036122,0.219552 -0.017903,0.09739 -0.032177,0.168651 -0.0428,0.215423 L 5.894565,13.151382 H 5.1420784 L 4.355,10.125 h 0.6456289 l 0.4850573,2.116819 c 0.010929,0.04373 0.021247,0.10152 0.03157,0.172777 z"
     id="path18-0"
     style="stroke-width:0.288987" />
</svg>
