<?xml version="1.0" encoding="UTF-8" standalone="no"?>
<svg
   height="16"
   width="16"
   viewBox="0 0 16 16"
   version="1.0"
   id="svg4"
   xmlns="http://www.w3.org/2000/svg"
   xmlns:svg="http://www.w3.org/2000/svg">
  <defs
     id="defs8" />
  <path
     fill="#FFF"
     d="M 2.9178621,14.978042 H 13.067412 c 0.09625,0 0.174992,-0.07874 0.174992,-0.174992 V 4.4785075 h -2.974868 c -0.2894366,0 -0.5249766,-0.2355395 -0.5249766,-0.5249766 V 0.978663 H 2.9178621 c -0.096246,0 -0.1749918,0.078747 -0.1749918,0.1749923 V 14.80305 c 0,0.09624 0.078744,0.174992 0.1749918,0.174992 z"
     id="path2-3"
     style="fill:#c6501b;fill-opacity:1;stroke-width:0.349985" />
  <path
     fill="#FFF"
     d="M 12.994965,4.1285239 10.092544,1.226102 v 2.7274289 c 0,0.096246 0.07875,0.174993 0.174992,0.174993 z"
     id="path4"
     style="fill:#c6501b;fill-opacity:1;stroke-width:0.349985" />
  <path
     style="fill:#ffffff;fill-opacity:1;stroke-width:0.0258956"
     d="m 4.6131506,12.352121 v -0.802764 h 0.297796 0.2977913 v -0.595596 -0.595599 h 1.294783 1.2947834 V 9.9438294 9.529502 H 6.8013402 5.804332 V 8.5325188 7.5355389 H 7.9795885 10.15482 V 8.5325188 9.529502 h -0.9969836 -0.99698 v 0.4143274 0.4143326 h 1.294775 1.2947756 v 0.595599 0.595596 h 0.297798 0.297808 v 0.802764 0.802763 H 10.569142 9.7922834 V 12.352121 11.549357 H 10.090075 10.38787 V 11.135029 10.720698 H 9.2743674 8.1608564 v 0.414331 0.414328 H 8.4586518 8.756447 v 0.802764 0.802763 H 7.9795885 7.2027174 V 12.352121 11.549357 H 7.500513 7.7983043 V 11.135029 10.720698 H 6.6847852 5.5712788 v 0.414331 0.414328 H 5.86907 6.1668687 v 0.802764 0.802763 H 5.3900103 4.6131506 Z"
     id="path5082-1" />
</svg>
