<svg width="48" height="48" viewBox="0 0 48 48" fill="none" xmlns="http://www.w3.org/2000/svg">
<path d="M17.6667 21.9167H12.9167V17.1667H9.75V21.9167H5V25.0833H9.75V29.8333H12.9167V25.0833H17.6667V21.9167ZM33.5 23.5C36.1283 23.5 38.2342 21.3783 38.2342 18.75C38.2342 16.1217 36.1283 14 33.5 14C32.9933 14 32.5025 14.0792 32.0592 14.2217C32.9617 15.5042 33.4842 17.0558 33.4842 18.75C33.4842 20.4442 32.9458 21.98 32.0592 23.2783C32.5025 23.4208 32.9933 23.5 33.5 23.5ZM25.5833 23.5C28.2117 23.5 30.3175 21.3783 30.3175 18.75C30.3175 16.1217 28.2117 14 25.5833 14C22.955 14 20.8333 16.1217 20.8333 18.75C20.8333 21.3783 22.955 23.5 25.5833 23.5ZM36.065 26.92C37.3792 28.0758 38.25 29.5483 38.25 31.4167V34.5833H43V31.4167C43 28.9783 39.2475 27.4742 36.065 26.92ZM25.5833 26.6667C22.4167 26.6667 16.0833 28.25 16.0833 31.4167V34.5833H35.0833V31.4167C35.0833 28.25 28.75 26.6667 25.5833 26.6667Z"/>
</svg>
