<?xml version="1.0" encoding="UTF-8" standalone="no"?>
<svg
   height="16"
   width="16"
   viewBox="0 0 16 16"
   version="1.0"
   id="svg4"
   xmlns="http://www.w3.org/2000/svg"
   xmlns:svg="http://www.w3.org/2000/svg"
   xmlns:figma="http://www.figma.com/figma/ns">
  <defs
     id="defs8" />
  <path
     fill="#FFF"
     d="M 2.9178621,14.978042 H 13.067412 c 0.09625,0 0.174992,-0.07874 0.174992,-0.174992 V 4.4785075 h -2.974868 c -0.2894366,0 -0.5249766,-0.2355395 -0.5249766,-0.5249766 V 0.978663 H 2.9178621 c -0.096246,0 -0.1749918,0.078747 -0.1749918,0.1749923 V 14.80305 c 0,0.09624 0.078744,0.174992 0.1749918,0.174992 z"
     id="path2-3"
     style="fill:#333333;fill-opacity:1;stroke-width:0.349985" />
  <path
     fill="#FFF"
     d="M 12.994965,4.1285239 10.092544,1.226102 v 2.7274289 c 0,0.096246 0.07875,0.174993 0.174992,0.174993 z"
     id="path4"
     style="fill:#333333;fill-opacity:1;stroke-width:0.349985" />
  <path
     opacity="0.64"
     fill="#605E5C"
     d="M 7.2823331,19.436727 4.6025028,16.756612 A 0.42984317,0.42984317 0 0 0 4.3007586,16.631644 h -5.5754361 c -0.2354172,0 -0.4269963,0.191579 -0.4269963,0.426997 v 11.10191 c 0,0.235417 0.1915791,0.426996 0.4269963,0.426996 h 8.2552664 c 0.2354172,0 0.4269963,-0.191579 0.4269963,-0.426996 v -8.42208 c 0,-0.113865 -0.044408,-0.221184 -0.1252521,-0.301744 z m -2.721391,-2.31916 2.3607212,2.360721 H 4.7032738 A 0.14261684,0.14261684 0 0 1 4.5609421,19.335956 Z m 2.4196468,11.185315 h -8.2552664 a 0.14261684,0.14261684 0 0 1 -0.1423317,-0.142331 v -11.10191 c 0,-0.07828 0.064049,-0.142332 0.1423317,-0.142332 h 5.550955 v 2.419647 c 0,0.235417 0.1915791,0.426996 0.4269963,0.426996 h 2.4196474 v 8.397599 c 0,0.07828 -0.06405,0.142331 -0.1423323,0.142331 z"
     id="path6"
     style="fill:#ffffff;stroke-width:0.284665" />
  <g
     id="g2434"
     transform="matrix(1.3080147,0,0,1.3080147,4.1499088,-22.155674)">
    <g
       id="Canvas"
       transform="matrix(0.11815316,0,0,0.11815316,-193.49567,-268.97825)"
       figma:type="canvas">
      <g
         id="g71"
         style="mix-blend-mode:normal"
         figma:type="group">
        <g
           id="g69"
           style="mix-blend-mode:normal"
           figma:type="group">
          <g
             id="Group"
             style="mix-blend-mode:normal"
             figma:type="group">
            <g
               id="g"
               style="mix-blend-mode:normal"
               figma:type="group">
              <g
                 id="path"
                 style="mix-blend-mode:normal"
                 figma:type="group">
                <g
                   id="path9 fill"
                   style="mix-blend-mode:normal"
                   figma:type="vector">
                  <path
                     id="use6"
                     d="m 1642.285,2479.8353 c 0,1.5581 -0.1247,2.0655 -0.4452,2.4394 -0.3567,0.3213 -0.8198,0.4989 -1.2998,0.4986 l 0.1246,0.8903 c 0.7442,0.01 1.4664,-0.2528 2.0299,-0.7389 0.3033,-0.3698 0.5289,-0.7969 0.6635,-1.2558 0.1346,-0.4588 0.1754,-0.9401 0.12,-1.4151 v -5.8938 h -1.193 v 5.4397 z"
                     style="mix-blend-mode:normal;fill:#4e4e4e" />
                </g>
              </g>
              <g
                 id="g13"
                 style="mix-blend-mode:normal"
                 figma:type="group">
                <g
                   id="path10 fill"
                   style="mix-blend-mode:normal"
                   figma:type="vector">
                  <path
                     id="use10"
                     d="m 1651.182,2479.1331 c 0,0.6677 0,1.2642 0.053,1.7806 h -1.0595 l -0.071,-1.0595 c -0.2216,0.3749 -0.5385,0.6844 -0.9185,0.897 -0.38,0.2127 -0.8095,0.321 -1.2449,0.3138 -1.0328,0 -2.2614,-0.5609 -2.2614,-2.8489 v -3.8016 h 1.193 v 3.5612 c 0,1.2375 0.3828,2.0655 1.4601,2.0655 0.2216,0 0.4415,-0.04 0.6467,-0.1232 0.2053,-0.084 0.3917,-0.2076 0.5484,-0.3643 0.1567,-0.1568 0.2806,-0.3432 0.3643,-0.5484 0.084,-0.2053 0.1256,-0.4251 0.1233,-0.6468 v -3.9885 h 1.1929 v 4.7275 z"
                     style="mix-blend-mode:normal;fill:#4e4e4e" />
                </g>
              </g>
              <g
                 id="g18"
                 style="mix-blend-mode:normal"
                 figma:type="group">
                <g
                   id="path11 fill"
                   style="mix-blend-mode:normal"
                   figma:type="vector">
                  <path
                     id="use15"
                     d="m 1653.4434,2476.5326 c 0,-0.8279 0,-1.5046 -0.053,-2.1189 h 1.0684 l 0.053,1.1129 c 0.238,-0.4021 0.5807,-0.732 0.9915,-0.9546 0.4107,-0.2227 0.8742,-0.3297 1.3411,-0.3096 1.5847,0 2.7777,1.3265 2.7777,3.303 0,2.3326 -1.4334,3.49 -2.9825,3.49 -0.3965,0.018 -0.7909,-0.067 -1.1449,-0.2467 -0.3541,-0.1793 -0.6558,-0.447 -0.8761,-0.7772 v 0 3.5612 h -1.1752 v -7.0333 z m 1.1752,1.7361 c 0,0.1616 0.021,0.3225 0.053,0.4808 0.101,0.3953 0.331,0.7456 0.6535,0.9956 0.3225,0.2499 0.7191,0.3852 1.1271,0.3843 1.2553,0 1.9943,-1.0238 1.9943,-2.5106 0,-1.2998 -0.6944,-2.4127 -1.9498,-2.4127 -0.4967,0.041 -0.9616,0.2612 -1.3074,0.6201 -0.3459,0.3589 -0.5489,0.8317 -0.5711,1.3297 z"
                     style="mix-blend-mode:normal;fill:#4e4e4e" />
                </g>
              </g>
              <g
                 id="g23"
                 style="mix-blend-mode:normal"
                 figma:type="group">
                <g
                   id="path12 fill"
                   style="mix-blend-mode:normal"
                   figma:type="vector">
                  <path
                     id="use20"
                     d="m 1661.7476,2474.4078 1.4334,3.8372 c 0.1514,0.4273 0.3116,0.9437 0.4185,1.3265 0.1246,-0.3917 0.2581,-0.8903 0.4184,-1.3532 l 1.2998,-3.8105 h 1.2554 l -1.7806,4.6296 c -0.8903,2.2257 -1.4334,3.3742 -2.2525,4.0686 -0.4125,0.3768 -0.9155,0.6406 -1.4601,0.7657 l -0.2938,-0.9972 c 0.3808,-0.1251 0.7343,-0.3215 1.0417,-0.5787 0.4343,-0.3539 0.779,-0.8054 1.006,-1.3176 0.049,-0.089 0.082,-0.1851 0.098,-0.2849 -0.01,-0.1074 -0.037,-0.2126 -0.08,-0.3116 l -2.4216,-5.9917 h 1.2998 z"
                     style="mix-blend-mode:normal;fill:#4e4e4e" />
                </g>
              </g>
              <g
                 id="g28"
                 style="mix-blend-mode:normal"
                 figma:type="group">
                <g
                   id="path13 fill"
                   style="mix-blend-mode:normal"
                   figma:type="vector">
                  <path
                     id="use25"
                     d="m 1669.7401,2472.54 v 1.8696 h 1.7094 v 0.8903 h -1.7094 v 3.5078 c 0,0.8013 0.2315,1.2642 0.8903,1.2642 0.234,0 0.4675,-0.023 0.6945,-0.08 l 0.053,0.8903 c -0.3404,0.1179 -0.6995,0.1722 -1.0595,0.1602 -0.2384,0.015 -0.4772,-0.022 -0.7,-0.1079 -0.2229,-0.086 -0.4244,-0.2193 -0.5909,-0.3906 -0.3626,-0.4851 -0.5281,-1.0895 -0.463,-1.6916 v -3.5612 h -1.0149 v -0.8903 h 1.0327 v -1.5847 z"
                     style="mix-blend-mode:normal;fill:#4e4e4e" />
                </g>
              </g>
              <g
                 id="g33"
                 style="mix-blend-mode:normal"
                 figma:type="group">
                <g
                   id="path14 fill"
                   style="mix-blend-mode:normal"
                   figma:type="vector">
                  <path
                     id="use30"
                     d="m 1673.6472,2477.869 c -0.024,0.3019 0.017,0.6055 0.1221,0.8898 0.1047,0.2842 0.2698,0.5423 0.484,0.7565 0.2142,0.2142 0.4723,0.3793 0.7566,0.484 0.2842,0.1046 0.5878,0.1463 0.8897,0.1222 0.6107,0.014 1.2175,-0.1017 1.7806,-0.3384 l 0.2048,0.8903 c -0.6911,0.2847 -1.4341,0.4212 -2.1812,0.4007 -0.4356,0.03 -0.8724,-0.035 -1.2806,-0.1898 -0.4081,-0.1549 -0.778,-0.3962 -1.0841,-0.7074 -0.3062,-0.3112 -0.5414,-0.685 -0.6895,-1.0956 -0.1481,-0.4107 -0.2057,-0.8485 -0.1687,-1.2835 0,-1.9587 1.1663,-3.5078 3.0715,-3.5078 2.1367,0 2.6709,1.8696 2.6709,3.0626 0.011,0.1838 0.011,0.3682 0,0.552 h -4.6028 z m 3.4899,-0.8903 c 0.034,-0.238 0.017,-0.4806 -0.05,-0.7115 -0.067,-0.2309 -0.1834,-0.4447 -0.3403,-0.6269 -0.1569,-0.1822 -0.3511,-0.3287 -0.5694,-0.4296 -0.2183,-0.1008 -0.4557,-0.1537 -0.6962,-0.155 -0.4892,0.035 -0.9475,0.2522 -1.2851,0.6079 -0.3376,0.3558 -0.5302,0.8248 -0.54,1.3151 z"
                     style="mix-blend-mode:normal;fill:#4e4e4e" />
                </g>
              </g>
              <g
                 id="g38"
                 style="mix-blend-mode:normal"
                 figma:type="group">
                <g
                   id="path15 fill"
                   style="mix-blend-mode:normal"
                   figma:type="vector">
                  <path
                     id="use35"
                     d="m 1680.0334,2476.4323 c 0,-0.7657 0,-1.4245 -0.053,-2.0299 h 1.0684 v 1.2731 h 0.053 c 0.1121,-0.3929 0.3438,-0.7412 0.6629,-0.9965 0.3191,-0.2552 0.7097,-0.4048 1.1177,-0.4279 0.1123,-0.015 0.226,-0.015 0.3383,0 v 1.1128 c -0.1361,-0.016 -0.2735,-0.016 -0.4096,0 -0.4041,0.016 -0.7887,0.1779 -1.082,0.4565 -0.2933,0.2785 -0.4751,0.6542 -0.5116,1.057 -0.033,0.1822 -0.051,0.3668 -0.053,0.552 v 3.4633 h -1.1752 v -4.4515 z"
                     style="mix-blend-mode:normal;fill:#4e4e4e" />
                </g>
              </g>
            </g>
            <path
               style="opacity:0.519267;fill:#ffffff;fill-opacity:1;stroke-width:0.051703"
               d="m 19.225334,30.46626 c -0.05632,-0.210372 -0.03502,-0.247365 0.1786,-0.310136 0.228487,-0.06714 0.384845,-0.215181 0.451385,-0.427377 0.02732,-0.08712 0.0458,-0.599634 0.05678,-1.574107 l 0.01627,-1.444923 h 0.218273 0.218273 l 0.009,1.291026 c 0.0049,0.710065 -0.0022,1.38879 -0.01579,1.508279 -0.0288,0.2528 -0.142709,0.521595 -0.294134,0.694058 -0.121354,0.138215 -0.426351,0.286345 -0.659535,0.320321 -0.14547,0.0212 -0.159286,0.01679 -0.17908,-0.05714 z"
               id="path14178"
               transform="matrix(2.4092826,0,0,2.4092826,1594.3546,2410.0574)" />
            <path
               style="opacity:0.519267;fill:#ffffff;fill-opacity:1;stroke-width:0.051703"
               d="m 19.228364,30.418164 c -0.02748,-0.143778 -0.0088,-0.164907 0.245363,-0.277848 0.197849,-0.08791 0.248288,-0.128541 0.327636,-0.263938 l 0.09379,-0.160034 0.02834,-1.426365 c 0.01559,-0.784501 0.02913,-1.460992 0.03009,-1.503314 0.0016,-0.07023 0.01813,-0.07695 0.189201,-0.07695 0.16979,0 0.189402,0.0078 0.208226,0.0828 0.01143,0.04554 0.01481,0.695756 0.0075,1.444924 -0.01279,1.312713 -0.01604,1.369127 -0.08964,1.555174 -0.119399,0.301825 -0.251963,0.459033 -0.48721,0.577785 -0.114574,0.05784 -0.281807,0.113862 -0.371628,0.1245 -0.157784,0.01869 -0.163934,0.01609 -0.181678,-0.07673 z"
               id="path14217"
               transform="matrix(2.4092826,0,0,2.4092826,1594.3546,2410.0574)" />
            <path
               style="opacity:0.519267;fill:#ffffff;fill-opacity:1;stroke-width:0.051703"
               d="M 21.909391,29.398843 C 21.756499,29.343514 21.54161,29.159794 21.471671,29.024615 21.343794,28.77745 21.324136,28.595969 21.32372,27.658749 l -4.06e-4,-0.914833 h 0.21824 0.218241 l 0.01738,0.880634 c 0.0103,0.521773 0.03361,0.933276 0.05722,1.009817 0.05787,0.187661 0.222369,0.358973 0.387344,0.403396 0.306953,0.08265 0.673874,-0.0772 0.806615,-0.351401 0.06935,-0.143266 0.07333,-0.200926 0.07333,-1.06406 v -0.912585 h 0.239396 0.239395 v 1.333775 1.333776 h -0.205196 -0.205196 v -0.205196 c 0,-0.112858 -0.0046,-0.205196 -0.01027,-0.205196 -0.0056,0 -0.09518,0.08224 -0.198955,0.182755 -0.121748,0.117922 -0.247656,0.202849 -0.354915,0.239396 -0.191956,0.06541 -0.529781,0.07017 -0.696549,0.0098 z"
               id="path14256"
               transform="matrix(2.4092826,0,0,2.4092826,1594.3546,2410.0574)" />
            <path
               style="opacity:0.519267;fill:#ffffff;fill-opacity:1;stroke-width:0.051703"
               d="m 21.84557,29.339822 c -0.167139,-0.08273 -0.336887,-0.263379 -0.412382,-0.438858 -0.05099,-0.118522 -0.101153,-0.977138 -0.107536,-1.840704 l -0.0023,-0.316344 h 0.205196 c 0.140803,0 0.205523,0.01342 0.206237,0.04275 5.72e-4,0.02351 0.01496,0.448696 0.03198,0.944854 l 0.03094,0.902104 0.09627,0.154461 c 0.120191,0.192846 0.280307,0.281628 0.506127,0.280639 0.28919,-0.0013 0.575163,-0.181994 0.665246,-0.420418 0.02242,-0.05933 0.03637,-0.449739 0.03637,-1.017432 v -0.921156 h 0.239396 0.239395 v 1.333775 1.333776 h -0.205196 -0.205196 v -0.205196 c 0,-0.112858 -0.0099,-0.205196 -0.0221,-0.205196 -0.01216,0 -0.09708,0.07013 -0.188715,0.155846 -0.235287,0.220083 -0.401089,0.287088 -0.712566,0.287968 -0.192531,5.43e-4 -0.292563,-0.01713 -0.401127,-0.07087 z"
               id="path14295"
               transform="matrix(2.4092826,0,0,2.4092826,1594.3546,2410.0574)" />
            <path
               style="opacity:0.519267;fill:#ffffff;fill-opacity:1;stroke-width:0.051703"
               d="m 24.538056,28.624882 v -1.880966 h 0.205196 0.205196 v 0.226183 0.226183 l 0.162448,-0.172689 c 0.226293,-0.240561 0.467649,-0.347312 0.786218,-0.347742 0.703173,-9.49e-4 1.171696,0.534451 1.171696,1.338944 0,0.464587 -0.12931,0.817941 -0.400912,1.095543 -0.199355,0.203757 -0.435062,0.306879 -0.748904,0.327644 -0.321938,0.0213 -0.537036,-0.05038 -0.752071,-0.250631 -0.08982,-0.08364 -0.168023,-0.152077 -0.17379,-0.152077 -0.0058,0 -0.01048,0.330879 -0.01048,0.735287 v 0.735287 h -0.222296 -0.222296 z m 1.487557,0.429238 c 0.321001,-0.09661 0.531552,-0.408266 0.582994,-0.86295 0.0619,-0.547144 -0.208339,-1.037303 -0.627315,-1.137814 -0.340753,-0.08175 -0.730435,0.11794 -0.895476,0.458868 -0.09004,0.186009 -0.125851,0.640137 -0.07276,0.92288 0.0948,0.504893 0.522653,0.766457 1.012561,0.619016 z"
               id="path14334"
               transform="matrix(2.4092826,0,0,2.4092826,1594.3546,2410.0574)" />
            <path
               style="opacity:0.519267;fill:#ffffff;fill-opacity:1;stroke-width:0.051703"
               d="m 24.538056,28.624882 v -1.880966 h 0.205196 0.205196 v 0.237165 0.237165 l 0.179547,-0.178533 c 0.265058,-0.263561 0.387734,-0.312897 0.778036,-0.312897 0.268558,0 0.352172,0.01344 0.482206,0.07751 0.222993,0.109877 0.3996,0.297682 0.522072,0.555175 0.09322,0.195986 0.107261,0.265314 0.118657,0.585764 0.01869,0.525565 -0.07304,0.808753 -0.367789,1.135411 -0.185476,0.205556 -0.414808,0.305526 -0.742318,0.32359 -0.342176,0.01887 -0.474421,-0.02151 -0.716669,-0.218819 -0.101407,-0.0826 -0.192289,-0.150177 -0.201959,-0.150177 -0.0097,0 -0.01758,0.330879 -0.01758,0.735287 v 0.735287 h -0.222296 -0.222296 z m 1.508219,0.439361 c 0.263036,-0.08922 0.424774,-0.277993 0.523761,-0.611319 0.06813,-0.229434 0.06955,-0.584663 0.0032,-0.80802 -0.161881,-0.545112 -0.701484,-0.780037 -1.166171,-0.507713 -0.323117,0.189359 -0.442832,0.49755 -0.417584,1.075016 0.01566,0.358306 0.07651,0.523604 0.25506,0.692933 0.194784,0.184725 0.530025,0.251255 0.801714,0.159103 z"
               id="path14373"
               transform="matrix(2.4092826,0,0,2.4092826,1594.3546,2410.0574)" />
            <path
               style="opacity:0.519267;fill:#ffffff;fill-opacity:1;stroke-width:0.051703"
               d="m 27.644855,30.425932 -0.0508,-0.182514 0.184518,-0.09661 c 0.101484,-0.05313 0.251188,-0.161404 0.332674,-0.240599 0.166793,-0.162104 0.358933,-0.474627 0.359418,-0.584607 3.13e-4,-0.07098 -0.07227,-0.25847 -0.673497,-1.739803 -0.16032,-0.395003 -0.305006,-0.753459 -0.321526,-0.796569 -0.02986,-0.07793 -0.02855,-0.07832 0.228448,-0.0684 l 0.258483,0.01 0.324012,0.869111 c 0.178206,0.478011 0.349107,0.959374 0.379779,1.069695 0.06054,0.217744 0.08287,0.219375 0.144577,0.01056 0.02223,-0.07524 0.179898,-0.548473 0.350368,-1.051631 l 0.309943,-0.914833 h 0.235154 c 0.129334,0 0.235153,0.0104 0.235153,0.02311 0,0.04909 -0.840453,2.201959 -0.99558,2.550236 -0.299392,0.672165 -0.594046,1.044324 -0.970884,1.226259 -0.112858,0.05449 -0.221901,0.09908 -0.242318,0.0991 -0.02042,1.5e-5 -0.05998,-0.08211 -0.08792,-0.182487 z"
               id="path14412"
               transform="matrix(2.4092826,0,0,2.4092826,1594.3546,2410.0574)" />
            <path
               style="opacity:0.519267;fill:#ffffff;fill-opacity:1;stroke-width:0.051703"
               d="m 27.68856,30.497298 c -0.08547,-0.23204 -0.0819,-0.242572 0.117678,-0.347067 0.320597,-0.167854 0.664747,-0.60278 0.664747,-0.840086 0,-0.05723 -0.209184,-0.623412 -0.464852,-1.25819 -0.255669,-0.634778 -0.478439,-1.188769 -0.495045,-1.23109 -0.02953,-0.07526 -0.02504,-0.07695 0.204651,-0.07695 h 0.234844 l 0.262758,0.709637 c 0.144517,0.390301 0.317652,0.868279 0.384744,1.062175 0.08781,0.253785 0.132397,0.342128 0.159152,0.315373 0.02044,-0.02044 0.193256,-0.502268 0.384032,-1.070725 l 0.346867,-1.03356 0.196658,0.007 c 0.108162,0.0038 0.20326,0.0136 0.211327,0.02166 0.03041,0.03041 -0.880151,2.352323 -1.0751,2.741488 -0.253152,0.505352 -0.527905,0.821963 -0.858805,0.989643 -0.211466,0.107158 -0.237742,0.108184 -0.273656,0.01069 z"
               id="path14451"
               transform="matrix(2.4092826,0,0,2.4092826,1594.3546,2410.0574)" />
            <path
               style="opacity:0.519267;fill:#ffffff;fill-opacity:1;stroke-width:0.051703"
               d="m 31.223399,29.400079 c -0.136224,-0.06209 -0.3069,-0.259881 -0.358085,-0.414976 -0.02712,-0.08216 -0.04287,-0.428824 -0.04637,-1.020365 l -0.0053,-0.895928 -0.213746,-0.01018 -0.213746,-0.01018 V 26.879085 26.70972 h 0.222296 0.222296 v -0.323576 -0.323576 l 0.128248,-0.03362 c 0.07054,-0.01849 0.170569,-0.04384 0.222296,-0.05633 l 0.09405,-0.0227 v 0.379901 0.379901 h 0.359093 0.359094 v 0.170996 0.170997 h -0.359094 -0.359093 v 0.838984 c 0,0.910397 0.01773,1.018997 0.184163,1.128048 0.06207,0.04067 0.141191,0.05379 0.273907,0.04541 l 0.186629,-0.01178 0.02236,0.149473 c 0.01345,0.08992 0.0079,0.163882 -0.01381,0.185638 -0.0579,0.0579 -0.585121,0.06732 -0.705186,0.01259 z"
               id="path14490"
               transform="matrix(2.4092826,0,0,2.4092826,1594.3546,2410.0574)" />
            <path
               style="opacity:0.519267;fill:#ffffff;fill-opacity:1;stroke-width:0.051703"
               d="m 31.224035,29.371558 c -0.122376,-0.06768 -0.22753,-0.17964 -0.299792,-0.319184 -0.06523,-0.125964 -0.07209,-0.210602 -0.08665,-1.06873 L 30.821783,27.05171 H 30.65806 c -0.245198,0 -0.271915,-0.01884 -0.271915,-0.191755 v -0.150238 h 0.221013 0.221012 l 0.0098,-0.31591 0.0098,-0.31591 0.213746,-0.0576 0.213746,-0.0576 v 0.373514 0.373515 h 0.359093 0.359094 v 0.170996 0.170997 h -0.359094 -0.359093 v 0.856083 c 0,0.873867 0.02071,1.036615 0.141858,1.114757 0.02543,0.0164 0.146272,0.03752 0.268535,0.04692 l 0.222295,0.0171 0.01092,0.133316 c 0.0068,0.08354 -0.0059,0.143998 -0.0342,0.161923 -0.06611,0.04192 -0.580814,0.03393 -0.660705,-0.01026 z"
               id="path14529"
               transform="matrix(2.4092826,0,0,2.4092826,1594.3546,2410.0574)" />
            <path
               style="opacity:0.519267;fill:#ffffff;fill-opacity:1;stroke-width:0.051703"
               d="m 33.246054,29.379023 c -0.640263,-0.256516 -0.923253,-0.871387 -0.758593,-1.648249 0.126827,-0.598368 0.551071,-0.997961 1.109205,-1.044753 0.710776,-0.05959 1.201204,0.462061 1.201204,1.277677 v 0.182393 h -0.961466 -0.961465 l 0.0242,0.161385 c 0.05525,0.368421 0.293477,0.651536 0.63146,0.750435 0.212063,0.06205 0.598479,0.04489 0.877091,-0.03896 0.09058,-0.02726 0.16746,-0.04628 0.170843,-0.04227 0.0034,0.004 0.02146,0.08036 0.04018,0.169654 l 0.03403,0.162359 -0.175382,0.05669 c -0.114751,0.03709 -0.32908,0.06079 -0.619974,0.06857 -0.379619,0.01015 -0.468959,0.0021 -0.611333,-0.05492 z m 1.134268,-1.711724 c 0.0066,-0.07889 -0.0226,-0.183771 -0.0855,-0.307628 -0.23325,-0.459281 -0.788038,-0.521998 -1.162439,-0.131411 -0.127999,0.133533 -0.21548,0.325489 -0.21548,0.47282 v 0.104377 l 0.726737,-0.0092 0.726737,-0.0092 z"
               id="path14568"
               transform="matrix(2.4092826,0,0,2.4092826,1594.3546,2410.0574)" />
            <path
               style="opacity:0.519267;fill:#ffffff;fill-opacity:1;stroke-width:0.051703"
               d="m 33.167605,29.313792 c -0.264068,-0.127672 -0.451928,-0.313384 -0.578309,-0.571697 -0.08244,-0.168499 -0.100173,-0.252991 -0.111312,-0.530328 -0.02097,-0.522038 0.127906,-0.925233 0.44784,-1.212881 0.240165,-0.215928 0.486337,-0.299461 0.828965,-0.28129 0.336138,0.01783 0.494366,0.0924 0.713697,0.336344 0.178544,0.198584 0.274926,0.463963 0.312816,0.861305 l 0.02201,0.230846 h -0.979709 c -0.916676,0 -0.978625,0.0038 -0.962858,0.05985 0.0093,0.03292 0.02757,0.113713 0.04068,0.179547 0.05788,0.290774 0.326071,0.598814 0.590263,0.677968 0.181641,0.05442 0.594116,0.04984 0.844491,-0.0094 0.112857,-0.0267 0.214871,-0.038 0.226697,-0.02512 0.01183,0.01288 0.03126,0.07849 0.0432,0.145793 0.02084,0.11756 0.01663,0.124082 -0.107,0.165829 -0.07078,0.0239 -0.351846,0.0506 -0.624586,0.05934 -0.494963,0.01586 -0.496286,0.0157 -0.706882,-0.08612 z m 1.219122,-1.656338 c -0.0022,-0.415388 -0.395575,-0.754117 -0.804611,-0.692778 -0.338012,0.05069 -0.665181,0.395329 -0.665244,0.700769 l -3.1e-5,0.155751 0.735318,-0.0098 0.735319,-0.0098 z"
               id="path14607"
               transform="matrix(2.4092826,0,0,2.4092826,1594.3546,2410.0574)" />
            <path
               style="opacity:0.519267;fill:#ffffff;fill-opacity:1;stroke-width:0.051703"
               d="m 35.55539,28.043533 0.01197,-1.333735 0.196647,-4.1e-5 0.196646,-4e-5 v 0.273595 c 0,0.290307 0.03817,0.349107 0.101692,0.156643 0.07662,-0.232168 0.352042,-0.422895 0.693444,-0.480207 l 0.128247,-0.02153 v 0.223846 0.223846 l -0.111148,1.91e-4 c -0.210663,3.61e-4 -0.381119,0.07159 -0.522476,0.218331 -0.204449,0.212236 -0.22136,0.307536 -0.22136,1.247469 v 0.825367 h -0.242813 -0.242812 z"
               id="path14646"
               transform="matrix(2.4092826,0,0,2.4092826,1594.3546,2410.0574)" />
            <path
               style="opacity:0.519267;fill:#ffffff;fill-opacity:1;stroke-width:0.051703"
               d="m 35.561959,28.756197 c 0.01237,-0.341589 0.0225,-0.941788 0.0225,-1.333776 v -0.712704 h 0.188097 0.188096 v 0.273595 c 0,0.155813 0.01442,0.273595 0.0335,0.273595 0.01843,0 0.06415,-0.06007 0.101606,-0.13349 0.118769,-0.232805 0.459187,-0.4479 0.708867,-0.4479 0.07425,0 0.07941,0.01332 0.07941,0.205196 V 27.08591 H 36.72904 c -0.08525,0 -0.204518,0.02129 -0.265045,0.04732 -0.144138,0.06198 -0.347421,0.281581 -0.396212,0.428026 -0.02468,0.07409 -0.03873,0.424475 -0.03873,0.966132 v 0.849881 H 35.78426 35.539468 Z"
               id="path14685"
               transform="matrix(2.4092826,0,0,2.4092826,1594.3546,2410.0574)" />
            <path
               style="opacity:0.519267;fill:#ffffff;fill-opacity:1;stroke-width:0.051703"
               d="m 35.562338,29.115613 c 0.01217,-0.14391 0.02212,-0.74411 0.02212,-1.333776 v -1.07212 h 0.188097 0.188096 v 0.273595 c 0,0.150477 0.01395,0.273595 0.03099,0.273595 0.01705,0 0.08545,-0.0758 0.152011,-0.16845 0.128535,-0.178912 0.356304,-0.33454 0.555302,-0.379421 0.108815,-0.02454 0.123944,-0.01887 0.152921,0.05735 0.01769,0.04652 0.03216,0.135653 0.03216,0.198071 v 0.113488 l -0.213746,0.01366 c -0.245045,0.01566 -0.377289,0.094 -0.529692,0.313779 l -0.09445,0.136201 -0.01012,0.917843 -0.01012,0.917843 H 35.783064 35.54022 Z"
               id="path14724"
               transform="matrix(2.4092826,0,0,2.4092826,1594.3546,2410.0574)" />
            <path
               style="opacity:0.519267;fill:#ffffff;fill-opacity:1;stroke-width:0.051703"
               d="M 33.166847,29.292448 C 32.920593,29.1672 32.72428,28.965389 32.606486,28.716396 c -0.08982,-0.189857 -0.09992,-0.246027 -0.09995,-0.555548 -3.1e-5,-0.391216 0.05808,-0.636222 0.206275,-0.869742 0.228705,-0.360376 0.499232,-0.523497 0.899158,-0.542169 0.342937,-0.01601 0.532195,0.0383 0.725091,0.208098 0.260126,0.228973 0.385931,0.525097 0.436141,1.026609 l 0.01626,0.162447 H 33.81898 c -1.099588,0 -1.016533,-0.02648 -0.919,0.293037 0.07649,0.250586 0.253268,0.46887 0.465267,0.574514 0.156006,0.07774 0.223872,0.09003 0.497165,0.09003 0.174072,0 0.396101,-0.01707 0.493397,-0.03794 0.193426,-0.04148 0.235303,-0.01831 0.236334,0.130783 8.92e-4,0.128973 -0.116185,0.157798 -0.700563,0.172483 -0.536806,0.01349 -0.55056,0.01204 -0.72474,-0.07655 z m 1.010418,-1.476123 0.210213,-0.02197 v -0.150124 c 0,-0.191874 -0.06395,-0.343413 -0.204042,-0.483504 -0.304739,-0.30474 -0.76668,-0.27955 -1.071412,0.05842 -0.155859,0.172862 -0.19512,0.266924 -0.19512,0.467475 v 0.151671 h 0.525074 c 0.28879,0 0.619669,-0.0099 0.735287,-0.02197 z"
               id="path14763"
               transform="matrix(2.4092826,0,0,2.4092826,1594.3546,2410.0574)" />
            <path
               style="opacity:0.519267;fill:#ffffff;fill-opacity:1;stroke-width:0.051703"
               d="m 31.143057,29.290326 c -0.05683,-0.04782 -0.138251,-0.143454 -0.180938,-0.212524 -0.07218,-0.116787 -0.07931,-0.178349 -0.101813,-0.87919 -0.01331,-0.414485 -0.02541,-0.840589 -0.02688,-0.946897 l -0.0027,-0.193289 -0.201988,-0.02344 c -0.212582,-0.02467 -0.240956,-0.05377 -0.242137,-0.248318 -4.36e-4,-0.07188 0.01404,-0.07695 0.219734,-0.07695 h 0.2202 l 0.01936,-0.145348 c 0.01065,-0.07994 0.02313,-0.221366 0.02774,-0.314277 l 0.0084,-0.168931 0.170997,-0.04416 c 0.09405,-0.02429 0.182539,-0.04445 0.196646,-0.04482 0.01411,-3.63e-4 0.02565,0.160933 0.02565,0.358434 v 0.359094 h 0.359093 0.359094 v 0.170996 0.170997 h -0.359094 -0.359093 l 1.91e-4,0.846435 c 1.95e-4,0.864766 0.02454,1.077587 0.129554,1.132808 0.03209,0.01687 0.154538,0.04165 0.272098,0.05506 l 0.213746,0.02438 v 0.13344 0.133439 h -0.32227 c -0.295287,0 -0.330922,-0.0073 -0.425596,-0.08694 z"
               id="path14802"
               transform="matrix(2.4092826,0,0,2.4092826,1594.3546,2410.0574)" />
            <path
               style="opacity:0.519267;fill:#ffffff;fill-opacity:1;stroke-width:0.051703"
               d="m 27.687744,30.432346 c -0.05403,-0.154992 -0.05543,-0.152349 0.150987,-0.284394 0.360681,-0.230725 0.632254,-0.588008 0.632254,-0.831797 0,-0.107479 -0.213113,-0.684916 -0.696891,-1.888251 -0.246766,-0.613798 -0.252194,-0.633503 -0.1818,-0.659947 0.03991,-0.01499 0.134669,-0.02269 0.21058,-0.0171 l 0.13802,0.01016 0.298598,0.820785 c 0.399599,1.098414 0.472012,1.282477 0.504551,1.282477 0.02921,0 0.170378,-0.384168 0.537256,-1.462024 l 0.224084,-0.658338 h 0.16477 c 0.09062,0 0.173776,0.01457 0.184783,0.03238 0.02791,0.04516 -0.696601,1.929747 -1.002443,2.607535 -0.215727,0.478079 -0.479325,0.813474 -0.805753,1.025218 -0.247383,0.160469 -0.309765,0.164517 -0.358996,0.0233 z"
               id="path14841"
               transform="matrix(2.4092826,0,0,2.4092826,1594.3546,2410.0574)" />
            <path
               style="opacity:0.519267;fill:#ffffff;fill-opacity:1;stroke-width:0.051703"
               d="m 24.538056,28.624882 v -1.880966 h 0.205196 0.205196 v 0.244356 0.244357 l 0.181531,-0.171684 c 0.264457,-0.250112 0.365691,-0.29332 0.726701,-0.310161 0.262723,-0.01226 0.335918,-0.0032 0.482171,0.05973 0.212179,0.09128 0.420772,0.300188 0.548157,0.548994 0.09253,0.180724 0.0963,0.207532 0.0963,0.683987 v 0.495891 l -0.117054,0.215887 c -0.141401,0.260792 -0.390667,0.493696 -0.607424,0.567552 -0.173703,0.05919 -0.639471,0.07386 -0.769519,0.02424 -0.04355,-0.01662 -0.163404,-0.09356 -0.266351,-0.170997 -0.102947,-0.07743 -0.199133,-0.140788 -0.213746,-0.140788 -0.01461,0 -0.02657,0.330879 -0.02657,0.735287 v 0.735287 h -0.222296 -0.222296 z m 1.603421,0.412407 c 0.313404,-0.159886 0.482741,-0.506806 0.482741,-0.988987 0,-0.361353 -0.05997,-0.558291 -0.230793,-0.757854 -0.374637,-0.437679 -1.042959,-0.342176 -1.31775,0.188306 -0.05627,0.108636 -0.07417,0.219231 -0.08583,0.530539 -0.0086,0.230125 9.74e-4,0.451407 0.02313,0.53337 0.0547,0.202347 0.213073,0.402097 0.384768,0.485301 0.201583,0.09769 0.561678,0.102203 0.743733,0.0093 z"
               id="path14880"
               transform="matrix(2.4092826,0,0,2.4092826,1594.3546,2410.0574)" />
            <path
               style="opacity:0.519267;fill:#ffffff;fill-opacity:1;stroke-width:0.051703"
               d="m 21.853404,29.320441 c -0.242321,-0.127748 -0.382257,-0.315504 -0.43078,-0.577991 -0.03248,-0.175693 -0.102766,-1.963665 -0.07839,-1.99412 0.0056,-0.007 0.09357,-0.0023 0.195525,0.01047 l 0.185371,0.02316 0.02532,0.929566 0.02533,0.929567 0.102082,0.148371 c 0.143359,0.208364 0.274744,0.279722 0.515323,0.279877 0.241391,1.57e-4 0.493533,-0.115749 0.61145,-0.281072 0.07872,-0.110363 0.0801,-0.12727 0.08998,-1.095325 l 0.01003,-0.983232 h 0.237916 0.237915 v 1.333775 1.333776 H 23.37528 23.170084 v -0.205196 c 0,-0.116988 -0.01503,-0.205196 -0.03496,-0.205196 -0.01923,0 -0.100026,0.05956 -0.179547,0.132361 -0.240615,0.220276 -0.390623,0.278234 -0.71606,0.276662 -0.190159,-9.18e-4 -0.317289,-0.01918 -0.386106,-0.05546 z"
               id="path14919"
               transform="matrix(2.4092826,0,0,2.4092826,1594.3546,2410.0574)" />
            <path
               style="opacity:0.519267;fill:#ffffff;fill-opacity:1;stroke-width:0.051703"
               d="m 19.247735,30.415701 c -0.03287,-0.08566 0.03069,-0.158531 0.214897,-0.246371 0.205349,-0.09792 0.309337,-0.190677 0.389953,-0.347827 0.05518,-0.107572 0.06422,-0.272317 0.08696,-1.584389 l 0.02537,-1.464333 0.0807,-0.03068 c 0.04438,-0.01687 0.127765,-0.02127 0.185294,-0.0098 l 0.104599,0.02092 -0.01054,1.457352 -0.01054,1.457351 -0.112069,0.229115 c -0.128999,0.263728 -0.285775,0.408854 -0.547552,0.506866 -0.222646,0.08336 -0.377878,0.08784 -0.407076,0.01176 z"
               id="path14958"
               transform="matrix(2.4092826,0,0,2.4092826,1594.3546,2410.0574)" />
            <path
               style="opacity:0.519267;fill:#ffffff;fill-opacity:1;stroke-width:0.051703"
               d="m 33.706195,20.53382 c -0.610182,-0.221615 -0.962092,-0.853284 -0.808777,-1.451732 0.100183,-0.39105 0.353362,-0.692058 0.721691,-0.858025 0.133515,-0.06016 0.235919,-0.07706 0.478393,-0.07892 0.282161,-0.0022 0.328017,0.0072 0.53684,0.110032 0.928504,0.457101 0.921032,1.737915 -0.01293,2.217073 -0.231875,0.118959 -0.675104,0.148778 -0.915214,0.06157 z"
               id="path14997"
               transform="matrix(2.4092826,0,0,2.4092826,1594.3546,2410.0574)" />
            <path
               style="opacity:0.519267;fill:#ffffff;fill-opacity:1;stroke-width:0.051703"
               d="m 33.714577,20.540759 c -0.290467,-0.09481 -0.581537,-0.347131 -0.725123,-0.628582 -0.316158,-0.619722 -0.02797,-1.391509 0.631262,-1.690527 0.133192,-0.06041 0.232565,-0.07659 0.47667,-0.0776 0.280747,-0.0012 0.328843,0.0088 0.536411,0.110917 0.44098,0.216984 0.683655,0.607148 0.685352,1.101885 0.0012,0.362534 -0.0989,0.609446 -0.347294,0.856244 -0.265369,0.263669 -0.459779,0.349391 -0.823773,0.363229 -0.182104,0.0069 -0.344043,-0.0064 -0.433505,-0.03556 z"
               id="path15036"
               transform="matrix(2.4092826,0,0,2.4092826,1594.3546,2410.0574)" />
            <path
               style="opacity:0.519267;fill:#ffffff;fill-opacity:1;stroke-width:0.051703"
               d="m 33.643879,20.517515 c -0.256357,-0.101348 -0.530391,-0.36501 -0.666301,-0.641084 -0.09952,-0.202148 -0.11167,-0.257962 -0.109248,-0.501763 0.005,-0.507175 0.248364,-0.901629 0.690447,-1.119278 0.207548,-0.102181 0.257398,-0.112618 0.537878,-0.112618 0.280217,0 0.330455,0.01049 0.537142,0.112193 0.441514,0.217247 0.686317,0.610278 0.686317,1.101885 0,0.365835 -0.100053,0.609262 -0.355351,0.86456 -0.266462,0.266462 -0.444334,0.342441 -0.833781,0.356155 -0.248804,0.0088 -0.342159,-0.0027 -0.487103,-0.06005 z"
               id="path15075"
               transform="matrix(2.4092826,0,0,2.4092826,1594.3546,2410.0574)" />
            <path
               style="opacity:0.519267;fill:#ffffff;fill-opacity:1;stroke-width:0.051703"
               d="m 33.72059,20.542372 c -0.202848,-0.06673 -0.285875,-0.118092 -0.47136,-0.291592 -0.63632,-0.595202 -0.476793,-1.610605 0.313814,-1.997453 0.203722,-0.09968 0.256217,-0.110555 0.533739,-0.110555 0.261827,0 0.33678,0.01359 0.501881,0.09098 0.526306,0.246723 0.81129,0.781824 0.710984,1.33498 -0.04868,0.268456 -0.135671,0.438562 -0.331145,0.64754 -0.230099,0.245994 -0.465991,0.348932 -0.827656,0.361169 -0.177513,0.006 -0.347509,-0.0079 -0.430257,-0.03507 z"
               id="path15267"
               transform="matrix(2.4092826,0,0,2.4092826,1594.3546,2410.0574)" />
            <path
               style="opacity:0.519267;fill:#ffffff;fill-opacity:1;stroke-width:0.051703"
               d="m 33.678451,20.523152 c -0.218555,-0.0811 -0.330755,-0.158938 -0.511106,-0.354595 -0.300237,-0.325719 -0.392111,-0.896383 -0.208728,-1.296489 0.12486,-0.272421 0.335236,-0.487292 0.604427,-0.617343 0.201535,-0.09736 0.259196,-0.109309 0.533739,-0.110555 0.268687,-0.0012 0.334884,0.01111 0.521004,0.09708 0.259783,0.119989 0.486706,0.352227 0.61202,0.626354 0.129455,0.283187 0.130894,0.694335 0.0034,0.97555 -0.116792,0.257637 -0.352367,0.504464 -0.596853,0.625365 -0.264292,0.130694 -0.687828,0.15485 -0.957915,0.05463 z"
               id="path15306"
               transform="matrix(2.4092826,0,0,2.4092826,1594.3546,2410.0574)" />
            <path
               style="opacity:0.519267;fill:#ffffff;fill-opacity:1;stroke-width:0.051703"
               d="m 33.771889,20.557847 c -0.235519,-0.07767 -0.411955,-0.187159 -0.568761,-0.352958 -0.715624,-0.756666 -0.236431,-1.980823 0.809942,-2.069099 0.729771,-0.06157 1.342772,0.532178 1.313973,1.272694 -0.01708,0.439169 -0.281026,0.847331 -0.679513,1.050787 -0.176785,0.09026 -0.253269,0.108129 -0.499448,0.116677 -0.159882,0.0056 -0.329169,-0.0026 -0.376193,-0.0181 z"
               id="path15345"
               transform="matrix(2.4092826,0,0,2.4092826,1594.3546,2410.0574)" />
            <path
               style="opacity:0.519267;fill:#ffffff;fill-opacity:1;stroke-width:0.051703"
               d="M 33.579155,20.482954 C 33.298021,20.35022 33.037519,20.069031 32.93194,19.784342 32.8882,19.66641 32.88016,19.619236 32.86623,19.398891 c -0.01654,-0.261681 0.06496,-0.52361 0.234755,-0.754424 0.259383,-0.352602 0.539849,-0.495688 0.978695,-0.499302 0.530949,-0.0044 0.881626,0.209773 1.11423,0.680416 0.110362,0.223301 0.124575,0.281999 0.125848,0.519747 0.0027,0.495324 -0.22203,0.86869 -0.667683,1.109512 -0.195758,0.105783 -0.240023,0.115754 -0.538195,0.121224 -0.294109,0.0054 -0.344777,-0.0034 -0.534728,-0.09311 z"
               id="path15384"
               transform="matrix(2.4092826,0,0,2.4092826,1594.3546,2410.0574)" />
            <path
               style="opacity:0.519267;fill:#ffffff;fill-opacity:1;stroke-width:0.051703"
               d="m 20.364684,21.836997 c -0.357299,-0.114575 -0.614234,-0.472959 -0.613456,-0.855677 0.0012,-0.6102 0.568608,-1.011064 1.174825,-0.830053 0.08591,0.02565 0.209581,0.108942 0.317368,0.213746 0.368297,0.358105 0.37069,0.882357 0.0057,1.246559 -0.226625,0.226129 -0.591896,0.31923 -0.884425,0.225425 z"
               id="path15423"
               transform="matrix(2.4092826,0,0,2.4092826,1594.3546,2410.0574)" />
            <path
               style="opacity:0.519267;fill:#ffffff;fill-opacity:1;stroke-width:0.051703"
               d="m 20.41703,21.855625 c -0.528699,-0.128711 -0.820757,-0.75261 -0.58538,-1.250498 0.152091,-0.321717 0.430281,-0.493847 0.800225,-0.49514 0.257807,-9.01e-4 0.396949,0.05225 0.587541,0.224439 0.214705,0.193973 0.289811,0.361079 0.290748,0.646894 6.6e-4,0.201546 -0.01506,0.268057 -0.09941,0.420674 -0.195622,0.35393 -0.615652,0.545672 -0.993724,0.453631 z"
               id="path15462"
               transform="matrix(2.4092826,0,0,2.4092826,1594.3546,2410.0574)" />
          </g>
          <g
             id="g67"
             style="mix-blend-mode:normal"
             figma:type="group">
            <g
               id="g45"
               style="mix-blend-mode:normal"
               figma:type="group">
              <g
                 id="path16 fill"
                 style="mix-blend-mode:normal"
                 figma:type="vector">
                <path
                   id="use42"
                   d="m 1679.5106,2456.5257 c 0.037,0.5981 -0.1057,1.1935 -0.4088,1.7105 -0.303,0.5169 -0.7531,0.9319 -1.2929,1.1922 -0.5397,0.2602 -1.1447,0.3539 -1.7379,0.2691 -0.5932,-0.085 -1.1477,-0.3442 -1.593,-0.7453 -0.4452,-0.4011 -0.7609,-0.9256 -0.907,-1.5067 -0.146,-0.5812 -0.1158,-1.1927 0.087,-1.7566 0.2027,-0.5639 0.5686,-1.0547 1.0513,-1.4099 0.4826,-0.3551 1.06,-0.5586 1.6586,-0.5845 0.3926,-0.022 0.7855,0.035 1.1562,0.1654 0.3707,0.1308 0.7119,0.3336 1.0039,0.5967 0.2921,0.2631 0.5293,0.5813 0.6979,0.9364 0.1687,0.3551 0.2654,0.74 0.2848,1.1327 z"
                   style="mix-blend-mode:normal;fill:#767677" />
              </g>
            </g>
            <g
               id="g50"
               style="mix-blend-mode:normal"
               figma:type="group">
              <g
                 id="path17 fill"
                 style="mix-blend-mode:normal"
                 figma:type="vector">
                <path
                   id="use47"
                   d="m 1661.9062,2491.3924 c -8.0126,0 -15.0549,-2.8757 -18.6962,-7.1224 1.4128,3.8204 3.9622,7.1163 7.3048,9.444 3.3426,2.3278 7.3182,3.5756 11.3914,3.5756 4.0733,0 8.0488,-1.2478 11.3915,-3.5756 3.3426,-2.3277 5.8919,-5.6236 7.3048,-9.444 -3.6324,4.2467 -10.648,7.1224 -18.6963,7.1224 z"
                   style="mix-blend-mode:normal;fill:#f37726" />
              </g>
            </g>
            <g
               id="g55"
               style="mix-blend-mode:normal"
               figma:type="group">
              <g
                 id="path18 fill"
                 style="mix-blend-mode:normal"
                 figma:type="vector">
                <path
                   id="use52"
                   d="m 1661.9062,2463.7773 c 8.0127,0 15.055,2.8756 18.6963,7.1223 -1.4129,-3.8204 -3.9622,-7.1163 -7.3048,-9.444 -3.3427,-2.3277 -7.3182,-3.5756 -11.3915,-3.5756 -4.0732,0 -8.0488,1.2479 -11.3914,3.5756 -3.3426,2.3277 -5.892,5.6236 -7.3048,9.444 3.6413,-4.2556 10.648,-7.1223 18.6962,-7.1223 z"
                   style="mix-blend-mode:normal;fill:#f37726" />
              </g>
            </g>
            <g
               id="g60"
               style="mix-blend-mode:normal"
               figma:type="group">
              <g
                 id="path19 fill"
                 style="mix-blend-mode:normal"
                 figma:type="vector">
                <path
                   id="use57"
                   d="m 1650.8758,2499.6566 c 0.047,0.7533 -0.1314,1.5036 -0.5123,2.1553 -0.381,0.6516 -0.9473,1.1751 -1.6268,1.5037 -0.6796,0.3286 -1.4415,0.4475 -2.1889,0.3416 -0.7473,-0.106 -1.4462,-0.4321 -2.0076,-0.9367 -0.5614,-0.5046 -0.9598,-1.1649 -1.1446,-1.8967 -0.1847,-0.7319 -0.1474,-1.5022 0.1072,-2.2128 0.2546,-0.7106 0.715,-1.3293 1.3224,-1.7773 0.6075,-0.448 1.3347,-0.705 2.0887,-0.7383 0.494,-0.026 0.9884,0.045 1.4549,0.2094 0.4665,0.1647 0.8959,0.4197 1.2638,0.7504 0.368,0.3307 0.6671,0.7306 0.8804,1.177 0.2133,0.4464 0.3366,0.9304 0.3628,1.4244 z"
                   style="mix-blend-mode:normal;fill:#9e9e9e" />
              </g>
            </g>
            <g
               id="g65"
               style="mix-blend-mode:normal"
               figma:type="group">
              <g
                 id="path20 fill"
                 style="mix-blend-mode:normal"
                 figma:type="vector">
                <path
                   id="use62"
                   d="m 1644.1206,2462.8094 c -0.4317,0.012 -0.8574,-0.1041 -1.2234,-0.3334 -0.366,-0.2293 -0.656,-0.5618 -0.8336,-0.9555 -0.1775,-0.3937 -0.2347,-0.8312 -0.1643,-1.2573 0.07,-0.4261 0.2652,-0.822 0.5599,-1.1377 0.2948,-0.3157 0.6763,-0.5372 1.0966,-0.6366 0.4203,-0.099 0.8606,-0.072 1.2656,0.078 0.405,0.1501 0.7566,0.4166 1.0105,0.766 0.2539,0.3494 0.3988,0.7661 0.4165,1.1977 0.017,0.5835 -0.1971,1.1501 -0.5955,1.5768 -0.3984,0.4268 -0.949,0.6791 -1.5323,0.7023 z"
                   style="mix-blend-mode:normal;fill:#616262" />
              </g>
            </g>
          </g>
        </g>
      </g>
    </g>
    <path
       style="opacity:0.519267;fill:#ffffff;fill-opacity:1;stroke-width:0.014718"
       d="M 0.6794535,21.99389 C 0.57780527,21.96124 0.50470577,21.859335 0.50470577,21.750285 c 0,-0.143454 0.10523613,-0.247529 0.25080748,-0.248037 0.0738664,-2.58e-4 0.12118621,0.01801 0.17088091,0.06597 0.0475681,0.04591 0.074194,0.09767 0.0813581,0.158162 0.02063,0.174177 -0.16018473,0.321507 -0.32829896,0.267505 z"
       id="path15618" />
    <path
       style="opacity:0.519267;fill:#ffffff;fill-opacity:1;stroke-width:0.014718"
       d="m 0.65541331,21.975334 c -0.0915813,-0.0433 -0.14058064,-0.122486 -0.14094869,-0.227795 -5.124e-4,-0.143467 0.0948086,-0.23577 0.24345151,-0.23577 0.0834721,0 0.12708239,0.01962 0.18179063,0.08177 0.11116794,0.126293 0.0685397,0.308082 -0.0895864,0.382042 -0.0642448,0.03005 -0.1308047,0.02997 -0.19470703,-2.45e-4 z"
       id="path15657" />
    <path
       style="opacity:0.519267;fill:#ffffff;fill-opacity:1;stroke-width:0.014718"
       d="m 0.66439191,21.974992 c -0.0476942,-0.02077 -0.10313048,-0.0751 -0.12341792,-0.120964 -0.0258076,-0.05834 -0.0254516,-0.161044 7.3961e-4,-0.21197 0.0249876,-0.0486 0.064912,-0.0862 0.11272396,-0.106171 0.0445852,-0.01862 0.14511045,-0.02134 0.19390022,-0.0052 0.0404412,0.01335 0.10887501,0.08416 0.13049587,0.13504 0.0220355,0.05186 0.0198779,0.134547 -0.004768,0.182614 -0.0239915,0.04679 -0.0884851,0.107641 -0.13443618,0.12684 -0.0410154,0.01714 -0.13571342,0.01705 -0.1752305,-1.51e-4 z"
       id="path15696" />
    <path
       style="opacity:0.519267;fill:#ffffff;fill-opacity:1;stroke-width:0.014718"
       d="m 1.0020366,26.822223 c -0.11595463,-0.03256 -0.22341853,-0.116844 -0.27722412,-0.21741 -0.1597983,-0.298676 0.0509607,-0.654176 0.38749512,-0.653611 0.1314693,2.21e-4 0.2358595,0.0449 0.3217979,0.137721 0.088647,0.09575 0.1287215,0.208148 0.119068,0.333957 -0.013157,0.171487 -0.1273238,0.324853 -0.286729,0.385182 -0.073233,0.02772 -0.1932589,0.03414 -0.2644079,0.01416 z"
       id="path15735" />
    <path
       style="opacity:0.519267;fill:#ffffff;fill-opacity:1;stroke-width:0.014718"
       d="m 0.9674957,26.803019 c -0.13354461,-0.0549 -0.22772523,-0.150833 -0.26857115,-0.273574 -0.0176777,-0.05312 -0.0207038,-0.08042 -0.0175298,-0.158213 0.003283,-0.08055 0.008255,-0.103434 0.0346967,-0.159808 0.0540464,-0.115226 0.16447195,-0.20896 0.28345652,-0.24061 0.0668255,-0.01777 0.19252113,-0.01358 0.25685753,0.0086 0.1090603,0.03755 0.2008153,0.122067 0.2546431,0.234556 0.028485,0.05953 0.030281,0.06995 0.030281,0.175742 0,0.110198 -7.397e-4,0.113937 -0.036264,0.185836 -0.039988,0.08091 -0.1077722,0.156584 -0.1761552,0.196659 -0.1011022,0.05925 -0.2594405,0.07276 -0.36141482,0.03084 z"
       id="path15774" />
    <path
       style="opacity:0.519267;fill:#ffffff;fill-opacity:1;stroke-width:0.014718"
       d="m 1.0413741,26.816986 c -0.1611542,-0.0226 -0.32510438,-0.182887 -0.34964787,-0.341834 -0.0135812,-0.08795 -5.007e-5,-0.20174 0.0317628,-0.267097 0.0353517,-0.07263 0.12923566,-0.167352 0.19998528,-0.201778 0.11956129,-0.05818 0.27591969,-0.0563 0.39033429,0.0047 0.070794,0.03773 0.1526729,0.123927 0.190071,0.200089 0.023963,0.0488 0.02817,0.07012 0.03107,0.157456 0.00208,0.06262 -0.00137,0.117906 -0.00908,0.145447 -0.016027,0.05725 -0.093885,0.173584 -0.1420974,0.212328 -0.093842,0.07541 -0.2176267,0.108208 -0.3423934,0.09071 z"
       id="path15813" />
    <path
       style="opacity:0.519267;fill:#ffffff;fill-opacity:1;stroke-width:0.014718"
       d="m 4.4773061,21.622898 c -0.1357562,-0.0493 -0.2168013,-0.151337 -0.2400689,-0.302233 -0.013635,-0.08843 0.030938,-0.203703 0.1089277,-0.281693 0.112614,-0.112614 0.299089,-0.132719 0.4293065,-0.04629 0.064919,0.04309 0.095992,0.07998 0.1320523,0.156784 0.023854,0.0508 0.028797,0.07394 0.029122,0.136295 6.917e-4,0.138308 -0.065357,0.247654 -0.1898382,0.314137 -0.053012,0.02831 -0.071757,0.03295 -0.143713,0.03559 -0.058144,0.0021 -0.095548,-0.0016 -0.1257896,-0.0126 z"
       id="path15852" />
    <path
       style="opacity:0.519267;fill:#ffffff;fill-opacity:1;stroke-width:0.014718"
       d="M 4.449886,21.60522 C 4.375872,21.56995 4.3088608,21.502958 4.2759285,21.4313 c -0.023693,-0.05155 -0.027914,-0.07316 -0.028034,-0.143444 -1.204e-4,-0.07115 0.00369,-0.09056 0.027194,-0.138413 0.036016,-0.07334 0.1013012,-0.139111 0.1700954,-0.171354 0.048159,-0.02257 0.068196,-0.0261 0.1481757,-0.0261 0.076804,0 0.1001814,0.0038 0.1378749,0.02236 0.072369,0.03565 0.1280483,0.09131 0.1644998,0.16443 0.029728,0.05964 0.033086,0.0747 0.033282,0.149284 1.915e-4,0.0742 -0.00314,0.08976 -0.031521,0.147417 -0.034155,0.06938 -0.079266,0.116207 -0.1543246,0.160194 -0.042019,0.02462 -0.058243,0.02808 -0.1448092,0.03079 -0.087442,0.0027 -0.1027411,5.32e-4 -0.1484755,-0.02124 z"
       id="path15891" />
    <path
       style="opacity:0.519267;fill:#ffffff;fill-opacity:1;stroke-width:0.014718"
       d="M 4.4398386,21.593815 C 4.3736976,21.560855 4.2983993,21.477621 4.272781,21.409151 4.24173,21.326161 4.244938,21.23112 4.281391,21.154067 4.314739,21.083577 4.378977,21.016956 4.4448974,20.9845 c 0.03601,-0.01773 0.066337,-0.02352 0.1370487,-0.02617 0.085376,-0.0032 0.094481,-0.0016 0.152284,0.02686 0.074153,0.03651 0.1240203,0.08932 0.1630078,0.172632 0.02653,0.05669 0.028765,0.06932 0.0252,0.142364 -0.00484,0.09886 -0.030494,0.157092 -0.099919,0.226668 -0.074893,0.07505 -0.1182205,0.092 -0.2351863,0.092 -0.084934,0 -0.1035942,-0.0032 -0.1474917,-0.02505 z"
       id="path15930" />
    <path
       style="opacity:0.519267;fill:#ffffff;fill-opacity:1;stroke-width:0.0338155"
       d="M 1.0430072,24.06312 C 0.993381,24.01029 0.9877809,23.98182 0.9759246,23.722014 c -0.007114,-0.155908 -0.009072,-0.291018 -0.004353,-0.300245 0.004725,-0.0092 0.0281222,-0.01678 0.0519998,-0.01678 0.040533,0 0.043415,0.0176 0.043415,0.265144 0,0.250443 0.00304,0.268426 0.054851,0.32433 0.067542,0.07288 0.1964565,0.0799 0.2806625,0.01528 0.053824,-0.0413 0.056195,-0.05385 0.063289,-0.335016 0.00737,-0.29208 0.00737,-0.292105 0.061511,-0.292105 h 0.054142 v 0.369065 c 0,0.354153 -0.00179,0.369065 -0.044735,0.369065 -0.032806,0 -0.044735,-0.01491 -0.044735,-0.05592 0,-0.03075 -0.0061,-0.05592 -0.013547,-0.05592 -0.00745,0 -0.043452,0.02516 -0.080003,0.05592 -0.096258,0.081 -0.2785378,0.08011 -0.3554151,-0.0017 z"
       id="path16164" />
    <path
       style="opacity:0.519267;fill:#ffffff;fill-opacity:1;stroke-width:0.0338155"
       d="m 1.8722205,23.930632 v -0.525638 h 0.055919 c 0.047635,0 0.055919,0.01029 0.055919,0.06942 v 0.06942 l 0.079065,-0.06942 c 0.063717,-0.05594 0.098868,-0.06942 0.1810816,-0.06942 0.2108617,0 0.299043,0.108973 0.299043,0.369555 0,0.17059 -9.684e-4,0.173506 -0.086839,0.259368 -0.079514,0.07951 -0.096965,0.0868 -0.2069001,0.08634 -0.084607,-3.41e-4 -0.1365742,-0.01341 -0.17598,-0.04424 -0.030756,-0.02406 -0.063468,-0.04397 -0.072695,-0.04424 -0.00923,-2.74e-4 -0.016775,0.09512 -0.016775,0.211994 0,0.211747 -1.961e-4,0.212492 -0.055919,0.212492 H 1.872221 Z m 0.5035001,0.07135 c 0.1692899,-0.16929 0.1057271,-0.488347 -0.107335,-0.538772 -0.088709,-0.021 -0.2061203,0.04097 -0.2490478,0.131429 -0.052776,0.111217 -0.046383,0.304664 0.012545,0.379579 0.097512,0.123966 0.2364192,0.135182 0.3438378,0.02776 z"
       id="path16203" />
    <path
       style="opacity:0.519267;fill:#ffffff;fill-opacity:1;stroke-width:0.0338155"
       d="m 3.7188133,24.071044 c -0.021253,-0.03035 -0.034881,-0.09788 -0.034979,-0.173349 -8.74e-5,-0.068 -0.00653,-0.191062 -0.01431,-0.273472 -0.012252,-0.12972 -0.020459,-0.150739 -0.061123,-0.156573 -0.070392,-0.0101 -0.076319,-0.08502 -0.00673,-0.08502 0.057898,0 0.08232,-0.03627 0.08232,-0.122243 0,-0.03267 0.016345,-0.05576 0.044735,-0.06318 0.039737,-0.01039 0.044735,-6.91e-4 0.044735,0.08686 v 0.09856 h 0.1006539 c 0.085742,0 0.1006542,0.0066 0.1006542,0.04473 0,0.03811 -0.014911,0.04473 -0.1006542,0.04473 H 3.7734645 V 23.7196 c 0,0.136133 0.00998,0.266165 0.022181,0.288961 0.012201,0.0228 0.052462,0.0481 0.08947,0.05623 0.1005782,0.02209 0.081152,0.05596 -0.032097,0.05596 -0.077346,0 -0.1071076,-0.01103 -0.1342059,-0.04971 z"
       id="path16281" />
    <path
       style="opacity:0.519267;fill:#ffffff;fill-opacity:1;stroke-width:0.0338155"
       d="m 4.279304,24.074046 c -0.087731,-0.06901 -0.1255913,-0.159443 -0.1255913,-0.299988 0,-0.222524 0.1238213,-0.369064 0.3118458,-0.369064 0.164909,0 0.2655513,0.099 0.3012867,0.29637 l 0.015186,0.08388 H 4.4989989 4.2159657 l 0.015124,0.06151 c 0.041339,0.168134 0.1579383,0.241437 0.351809,0.221174 0.1061521,-0.01109 0.1300037,-0.0075 0.1300037,0.01962 0,0.02672 -0.03656,0.03321 -0.1871079,0.03321 -0.1558757,0 -0.1970197,-0.0078 -0.2464898,-0.04671 z M 4.6822248,23.68917 c 0.023747,-0.02375 -0.039519,-0.171967 -0.087849,-0.205821 -0.026402,-0.01849 -0.086797,-0.03362 -0.1342143,-0.03362 -0.1130804,0 -0.2169783,0.09703 -0.2169783,0.202635 v 0.07187 l 0.2131367,-0.01115 c 0.1172255,-0.0061 0.2188825,-0.01689 0.2259051,-0.02392 z"
       id="path16359" />
    <path
       style="opacity:0.519267;fill:#ffffff;fill-opacity:1;stroke-width:0.0338155"
       d="m 5.0124711,24.085375 c 0.00747,-0.01946 0.013574,-0.185539 0.013574,-0.369065 0,-0.318773 0.00197,-0.333684 0.044733,-0.333684 0.036214,0 0.044733,0.01491 0.044733,0.07829 0,0.0799 0.029659,0.105107 0.052773,0.04486 0.012392,-0.0323 0.1423227,-0.122895 0.1764932,-0.123066 0.00923,-4.6e-5 0.016777,0.01895 0.016777,0.04223 0,0.02755 -0.021465,0.04764 -0.061511,0.05758 -0.03383,0.0084 -0.084158,0.0364 -0.111838,0.06224 -0.046707,0.04359 -0.050325,0.06601 -0.050325,0.311488 v 0.264512 h -0.069489 c -0.054182,0 -0.066504,-0.0078 -0.055919,-0.03538 z"
       id="path16398" />
    <path
       style="opacity:0.519267;fill:#ffffff;fill-opacity:1;stroke-width:0.0338155"
       d="M 4.4275111,21.570973 C 4.273838,21.477278 4.2204289,21.276067 4.3101648,21.128889 4.4863786,20.839875 4.9363647,20.972603 4.9078296,21.305176 4.8866523,21.55198 4.6296332,21.694209 4.4275111,21.570973 Z"
       id="path16437" />
    <path
       style="opacity:0.519267;fill:#ffffff;fill-opacity:1;stroke-width:0.0338155"
       d="m 0.60749948,21.922404 c -0.0428011,-0.03682 -0.0625564,-0.07936 -0.0707977,-0.15248 -0.0157989,-0.14017 0.0522047,-0.220949 0.20003451,-0.237612 0.0942338,-0.01062 0.1111016,-0.0051 0.17261047,0.0564 0.0541007,0.0541 0.0681708,0.08735 0.0681708,0.161082 0,0.192517 -0.22490391,0.297433 -0.37001809,0.172611 z"
       id="path16476" />
    <path
       style="opacity:0.519267;fill:#ffffff;fill-opacity:1;stroke-width:0.0338155"
       d="M 0.92064537,26.763196 C 0.66187979,26.605395 0.62202989,26.287119 0.83572312,26.084933 1.0031405,25.926532 1.25295,25.940655 1.4218066,26.118066 c 0.08077,0.08486 0.1257898,0.24028 0.1008648,0.348207 -0.027052,0.117132 -0.1208217,0.248542 -0.2097142,0.293891 -0.113975,0.05815 -0.2995796,0.05958 -0.39231183,0.003 z"
       id="path16515" />
  </g>
</svg>
