<svg width="48" height="48" viewBox="0 0 48 48" fill="none" xmlns="http://www.w3.org/2000/svg">
<path d="M11.3186 28.288C9.50483 26.4743 9.50483 23.5257 11.3186 21.712L15.5612 17.4693L13.5459 15.4541L9.3033 19.6967C6.37588 22.6241 6.37588 27.3759 9.3033 30.3033C12.2307 33.2307 16.9825 33.2307 19.9099 30.3033L24.1525 26.0607L22.1373 24.0454L17.8946 28.288C16.0809 30.1018 13.1323 30.1018 11.3186 28.288ZM16.7279 25L25.2132 16.5147L23.0919 14.3934L14.6066 22.8787L16.7279 25ZM19.9099 9.0901L15.6673 13.3327L17.6825 15.348L21.9252 11.1054C23.7389 9.29162 26.6875 9.29162 28.5013 11.1054C30.315 12.9191 30.315 15.8677 28.5013 17.6814L24.2586 21.9241L26.2739 23.9393L30.5165 19.6967C33.4439 16.7693 33.4439 12.0175 30.5165 9.0901C27.5891 6.16268 22.8373 6.16268 19.9099 9.0901Z"/>
<path d="M32.8306 25.6694H36.5799V28.836H32.8306V32.5841H29.664L29.664 28.836H25.9099L25.9099 25.6694H29.664L29.664 21.9241L32.8306 21.9241V25.6694Z"/>
</svg>
