<?xml version="1.0" encoding="UTF-8" standalone="no"?>
<svg
   height="16"
   width="16"
   viewBox="0 0 16 16"
   version="1.0"
   id="svg4"
   xmlns="http://www.w3.org/2000/svg"
   xmlns:svg="http://www.w3.org/2000/svg">
  <defs
     id="defs8" />
  <path
     fill="#FFF"
     d="M 2.8964601,14.978042 H 13.04601 c 0.09625,0 0.174992,-0.07874 0.174992,-0.174992 V 4.4785075 h -2.974868 c -0.2894366,0 -0.5249766,-0.2355395 -0.5249766,-0.5249766 V 0.978663 H 2.8964601 c -0.096246,0 -0.1749918,0.078747 -0.1749918,0.1749923 V 14.80305 c 0,0.09624 0.078744,0.174992 0.1749918,0.174992 z"
     id="path2-3"
     style="fill:#dc5047;fill-opacity:1;stroke-width:0.349985" />
  <path
     fill="#FFF"
     d="M 12.994965,4.1285239 10.092544,1.226102 v 2.7274289 c 0,0.096246 0.07875,0.174993 0.174992,0.174993 z"
     id="path4"
     style="fill:#dc5047;fill-opacity:1;stroke-width:0.349985" />
  <path
     opacity="0.64"
     fill="#605E5C"
     d="M 7.2823331,19.436727 4.6025028,16.756612 A 0.42984317,0.42984317 0 0 0 4.3007586,16.631644 h -5.5754361 c -0.2354172,0 -0.4269963,0.191579 -0.4269963,0.426997 v 11.10191 c 0,0.235417 0.1915791,0.426996 0.4269963,0.426996 h 8.2552664 c 0.2354172,0 0.4269963,-0.191579 0.4269963,-0.426996 v -8.42208 c 0,-0.113865 -0.044408,-0.221184 -0.1252521,-0.301744 z m -2.721391,-2.31916 2.3607212,2.360721 H 4.7032738 A 0.14261684,0.14261684 0 0 1 4.5609421,19.335956 Z m 2.4196468,11.185315 h -8.2552664 a 0.14261684,0.14261684 0 0 1 -0.1423317,-0.142331 v -11.10191 c 0,-0.07828 0.064049,-0.142332 0.1423317,-0.142332 h 5.550955 v 2.419647 c 0,0.235417 0.1915791,0.426996 0.4269963,0.426996 h 2.4196474 v 8.397599 c 0,0.07828 -0.06405,0.142331 -0.1423323,0.142331 z"
     id="path6"
     style="fill:#ffffff;stroke-width:0.284665" />
  <path
     style="fill:#ffffff;fill-opacity:1;stroke-width:0.0996905"
     d="M 4.7751147,12.975569 C 4.3691845,12.663413 4.8486636,11.909407 5.7914405,11.377341 6.1404616,11.180366 6.1770677,11.133749 6.5206287,10.448712 6.7195747,10.052028 6.9695183,9.4672864 7.0760594,9.1492873 7.238748,8.6636972 7.2589254,8.5350174 7.202052,8.3457538 6.9778366,7.5996083 7.0154473,6.8165145 7.2896751,6.5213384 7.455311,6.3430501 7.806403,6.3226829 7.9658367,6.4821186 8.2220559,6.7383358 8.2534748,7.109522 8.0913044,7.9644085 c -0.08012,0.4223581 -0.087996,0.6060787 -0.033744,0.7871503 0.1168001,0.3898415 0.5721564,1.0287953 0.9095821,1.2763222 0.3151769,0.231207 0.3201171,0.232338 1.0212857,0.233965 0.3875168,9.08e-4 0.7881098,0.03327 0.8902078,0.07197 0.45366,0.171887 0.609635,0.549549 0.356012,0.862018 -0.11419,0.140685 -0.176084,0.155124 -0.642928,0.14997 -0.384169,-0.0041 -0.6495421,-0.05242 -1.0353585,-0.187987 l -0.5187859,-0.182285 -0.701128,0.103723 c -0.3856201,0.05705 -0.8975337,0.156478 -1.1375856,0.220958 l -0.436457,0.117232 -0.4207794,0.62313 c -0.6445044,0.954443 -1.1493615,1.255777 -1.5665084,0.934997 z m 0.6268248,-0.441751 c 0.2541774,-0.269504 0.5857694,-0.807731 0.53123,-0.862269 -0.053829,-0.05383 -0.7006017,0.56876 -0.8093783,0.779109 -0.1999841,0.386724 -0.050346,0.431461 0.2781483,0.08316 z m 1.9098344,-1.61323 c 0.3488806,-0.12019 0.7729978,-0.236291 1.2928919,-0.353924 L 8.782718,10.52638 8.4692314,10.233153 C 8.2968143,10.071875 8.0534865,9.7613833 7.9285025,9.5431658 7.8035189,9.3249482 7.6837006,9.1455252 7.6622411,9.1444465 7.6407826,9.1433365 7.5894794,9.2551066 7.5482399,9.3927548 7.5069975,9.5304039 7.3242607,9.9477035 7.1421541,10.320087 6.9600485,10.692472 6.8110518,11.010116 6.8110518,11.02596 c 0,0.05269 0.1077357,0.03 0.5007221,-0.105372 z m 3.7696981,0.01783 c 0.01548,-0.04712 -0.07458,-0.125966 -0.207105,-0.181337 -0.255972,-0.106951 -1.0300164,-0.135006 -1.0300164,-0.03734 0,0.05399 0.3983114,0.207114 0.7583254,0.291536 0.217924,0.0511 0.449667,0.01581 0.478796,-0.07287 z M 7.7813799,7.2028351 c 0.037302,-0.493234 -0.033969,-0.6717703 -0.2012638,-0.5041537 -0.085661,0.08583 -0.097139,0.721835 -0.018502,1.0251471 0.044999,0.173556 0.05889,0.182882 0.1171981,0.07869 0.036379,-0.065007 0.082536,-0.3348683 0.1025634,-0.599683 z"
     id="path10103" />
</svg>
