<?xml version="1.0" encoding="UTF-8" standalone="no"?>
<svg
   height="16"
   width="16"
   viewBox="0 0 16 16"
   version="1.0"
   id="svg4"
   xmlns="http://www.w3.org/2000/svg"
   xmlns:svg="http://www.w3.org/2000/svg">
  <defs
     id="defs8" />
  <path
     fill="#FFF"
     d="M 2.8964601,14.978042 H 13.04601 c 0.09625,0 0.174992,-0.07874 0.174992,-0.174992 V 4.4785075 h -2.974868 c -0.2894366,0 -0.5249766,-0.2355395 -0.5249766,-0.5249766 V 0.978663 H 2.8964601 c -0.096246,0 -0.1749918,0.078747 -0.1749918,0.1749923 V 14.80305 c 0,0.09624 0.078744,0.174992 0.1749918,0.174992 z"
     id="path2-3"
     style="fill:#c43e1c;fill-opacity:1;stroke-width:0.349985" />
  <path
     fill="#FFF"
     d="M 12.994965,4.1285239 10.092544,1.226102 v 2.7274289 c 0,0.096246 0.07875,0.174993 0.174992,0.174993 z"
     id="path4"
     style="fill:#c43e1c;fill-opacity:1;stroke-width:0.349985" />
  <path
     opacity="0.64"
     fill="#605E5C"
     d="M 7.2823331,19.436727 4.6025028,16.756612 A 0.42984317,0.42984317 0 0 0 4.3007586,16.631644 h -5.5754361 c -0.2354172,0 -0.4269963,0.191579 -0.4269963,0.426997 v 11.10191 c 0,0.235417 0.1915791,0.426996 0.4269963,0.426996 h 8.2552664 c 0.2354172,0 0.4269963,-0.191579 0.4269963,-0.426996 v -8.42208 c 0,-0.113865 -0.044408,-0.221184 -0.1252521,-0.301744 z m -2.721391,-2.31916 2.3607212,2.360721 H 4.7032738 A 0.14261684,0.14261684 0 0 1 4.5609421,19.335956 Z m 2.4196468,11.185315 h -8.2552664 a 0.14261684,0.14261684 0 0 1 -0.1423317,-0.142331 v -11.10191 c 0,-0.07828 0.064049,-0.142332 0.1423317,-0.142332 h 5.550955 v 2.419647 c 0,0.235417 0.1915791,0.426996 0.4269963,0.426996 h 2.4196474 v 8.397599 c 0,0.07828 -0.06405,0.142331 -0.1423323,0.142331 z"
     id="path6"
     style="fill:#ffffff;stroke-width:0.284665" />
  <path
     opacity="0.64"
     fill="#605E5C"
     d="M 2.5375895,4.1071009 -0.7887171,0.78044144 A 0.53353759,0.53353759 0 0 0 -1.1632534,0.6253268 h -6.920442 c -0.2922093,0 -0.5300045,0.23779498 -0.5300045,0.530004 V 14.935441 c 0,0.292209 0.2377952,0.530004 0.5300045,0.530004 H 2.1630532 c 0.292209,0 0.5300042,-0.237795 0.5300042,-0.530004 V 4.4816376 c 0,-0.1413344 -0.05512,-0.2745422 -0.1554679,-0.3745367 z M -0.84030409,1.2284714 2.0899126,4.1586885 H -0.66363603 A 0.17702141,0.17702141 0 0 1 -0.84030409,3.98202 Z M 2.1630532,15.112108 H -8.0836954 A 0.17702141,0.17702141 0 0 1 -8.2603633,14.935441 V 1.1553308 c 0,-0.097167 0.079501,-0.17666772 0.1766679,-0.17666772 h 6.8900551 V 3.98202 c 0,0.2922093 0.23779522,0.5300045 0.53000427,0.5300045 H 2.3397212 V 14.935441 c 0,0.09717 -0.0795,0.176667 -0.176668,0.176667 z"
     id="path6-3"
     style="fill:#000000;fill-opacity:0;stroke-width:0.353337" />
  <path
     fill="#FFC7B5"
     d="m 9.7629373,9.160852 v 1.581354 H 11.344292 A 1.5813546,1.5813546 0 0 0 9.7629373,9.160852 Z"
     id="path12-5"
     style="fill:#ffffff;stroke-width:0.26356" />
  <path
     fill="#f9f7f7"
     d="m 5.9384944,9.697928 c 0.4033116,0 0.7124207,0.09219 0.926464,0.277133 0.2146194,0.184947 0.321497,0.452573 0.321497,0.802878 0,0.224702 -0.053007,0.425205 -0.158732,0.600358 C 6.92171,11.553449 6.7707566,11.689423 6.5754381,11.786794 6.379832,11.884165 6.1536894,11.932562 5.8958586,11.932562 H 5.2534403 v 1.222322 H 4.5937379 V 9.697928 Z M 5.2531528,11.4048 h 0.567517 c 0.2218211,0 0.3886195,-0.05099 0.5015467,-0.153258 0.1129272,-0.102268 0.1696788,-0.250917 0.1696788,-0.4471 0,-0.380841 -0.2166362,-0.571262 -0.6499079,-0.571262 H 5.2531528 Z"
     id="path16-6"
     style="stroke-width:0.28808" />
  <path
     fill="#FFC7B5"
     d="m 9.235819,9.714326 v 1.581355 H 7.6544647 A 1.5813546,1.5813546 0 0 1 9.235819,9.714326 Z"
     id="path12-7-2"
     style="fill:#ffffff;stroke-width:0.26356" />
  <path
     fill="#FFC7B5"
     d="M 9.235819,13.050198 V 11.269325 H 7.6544647 a 1.5813546,1.7808732 0 0 0 1.5813543,1.780873 z"
     id="path12-7-5-9"
     style="fill:#e6e6e6;stroke-width:0.279693" />
  <path
     fill="#FFC7B5"
     d="M 9.2094632,13.050198 V 11.269325 H 10.790818 A 1.5813546,1.7808732 0 0 1 9.2094632,13.050198 Z"
     id="path12-7-5-5-1"
     style="fill:#e6e6e6;stroke-width:0.279693" />
</svg>
