<svg xmlns="http://www.w3.org/2000/svg" viewBox="0 0 384 512">
    <!-- Font Awesome Free 5.15.4 by @fontawesome - https://fontawesome.com License - https://fontawesome.com/license/free (Icons: CC BY 4.0, Fonts: SIL OFL 1.1, Code: MIT License) -->
    <g>
        <path d="M224,0 L224,136 C224,149.2 234.8,160 248,160 L248,160 L384,160 L384,488 C384,501.255 373.255,512 360,512 L360,512 L24,512 C10.745,512 0,501.255 0,488 L0,488 L0,24 C0,10.745 10.745,0 24,0 L24,0 L224,0 Z M153.6,221 L64,221 L64,323.4 L153.6,323.4 L153.6,285 L179.2,285 L179.2,413 L230.4,413 L230.4,451.4 L320,451.4 L320,349 L230.4,349 L230.4,387.4 L204.8,387.4 L204.8,285 L230.4,285 L230.4,323.4 L320,323.4 L320,221 L230.4,221 L230.4,259.4 L153.6,259.4 L153.6,221 Z M262.059,0 C268.424,0 274.529,2.529 279.03,7.029 L376.971,104.97 C381.471354,109.471363 384,115.575825 384,121.941 L384,128 L256,128 L256,0 L262.059,0 Z" id="Shape"></path>
    </g>
</svg>
