<svg xmlns="http://www.w3.org/2000/svg" viewBox="0 0 384 512" x="10">
   <!-- Font Awesome Free 5.15.4 by @fontawesome - https://fontawesome.com License - https://fontawesome.com/license/free (Icons: CC BY 4.0, Fonts: SIL OFL 1.1, Code: MIT License) -->
   <g
      transform="translate(45.367932,-89.73293)">
      <path
         d="m 57.709851,333.85095 c -2.415287,0.0671 -4.797005,-0.58242 -6.844712,-1.86532 -2.047706,-1.28289 -3.670206,-3.14317 -4.663848,-5.34585 -0.993081,-2.20269 -1.313106,-4.65042 -0.91923,-7.03438 0.391638,-2.38396 1.483749,-4.59895 3.132544,-6.36523 1.649355,-1.76629 3.783782,-3.00555 6.135288,-3.56167 2.351508,-0.55389 4.814908,-0.40283 7.080818,0.43639 2.2659,0.83979 4.23304,2.33081 5.65357,4.28564 1.42052,1.95484 2.23122,4.2862 2.33024,6.70093 0.0951,3.26458 -1.10274,6.43461 -3.33172,8.82192 -2.22898,2.38787 -5.30949,3.79945 -8.57295,3.92925 z m 37.79418,206.15372 c 0.26295,4.21458 -0.73516,8.41238 -2.86623,12.05853 -2.13163,3.64559 -5.29998,6.57448 -9.10167,8.41294 -3.80224,1.83846 -8.06494,2.50369 -12.24651,1.9112 -4.18102,-0.59306 -8.09124,-2.41753 -11.23218,-5.24068 -3.14094,-2.82315 -5.369916,-6.51741 -6.40384,-10.61171 -1.033364,-4.09485 -0.824677,-8.40455 0.599766,-12.38023 1.424444,-3.97569 4.000304,-7.43721 7.398604,-9.94369 3.39885,-2.50648 7.46741,-3.94435 11.68591,-4.13066 2.76385,-0.14546 5.52993,0.25177 8.13992,1.17156 2.60998,0.92147 5.0124,2.34815 7.07074,4.19836 2.05889,1.85021 3.73231,4.08758 4.92568,6.58511 1.19338,2.49753 1.88322,5.20543 2.02981,7.96927 z M 255.71079,298.69473 c 0.20701,3.34627 -0.59137,6.67743 -2.28717,9.56996 -1.69523,2.89196 -4.21346,5.21381 -7.23355,6.67015 -3.01953,1.45577 -6.4044,1.98001 -9.72325,1.50557 -3.31885,-0.47556 -6.42118,-1.92574 -8.91256,-4.16983 -2.49082,-2.24408 -4.2571,-5.17857 -5.07451,-8.42972 -0.81684,-3.25172 -0.64788,-6.67296 0.48675,-9.82788 1.13407,-3.15492 3.18122,-5.90086 5.88184,-7.88815 2.70007,-1.98672 5.93052,-3.12527 9.27958,-3.27017 2.19653,-0.12309 4.39474,0.19582 6.46874,0.92538 2.07401,0.73181 3.98296,1.86644 5.61665,3.33844 1.63425,1.472 2.96134,3.25227 3.90463,5.23899 0.94385,1.98673 1.48487,4.14017 1.59341,6.33726 z M 179.44226,226.34925 V 90.349248 H -20.557739 c -13.3,0 -24,10.700002 -24,24.000002 v 464 c 0,13.3 10.7,24 24,24 H 315.44226 c 13.3,0 24,-10.7 24,-24 v -328 h -136 c -13.2,0 -24,-10.8 -24,-24 z m 160,-14.1 v 6.1 h -128 V 90.349248 h 6.1 c 6.4,0 12.5,2.5 17,7 l 97.9,98.000002 c 4.5,4.5 7,10.6 7,16.9 z"
      />
   </g>
   <path
      id="path19604"
      fill="none"
      d="m 205.98235,394.67457 c -43.61728,0 -82.03308,-10.23461 -101.85458,-33.3518 7.69047,20.79647 21.56844,38.73789 39.76407,51.40896 18.19563,12.67167 39.83697,19.46397 62.0099,19.46397 22.17325,0 43.81398,-6.7923 62.01021,-19.46397 18.19563,-12.67107 32.073,-30.61249 39.76437,-51.40896 -19.7733,23.11719 -57.88271,33.3518 -101.69397,33.3518 z"
      style="mix-blend-mode:normal;fill:#f37726;stroke-width:5.44357"
      />
   <path
      id="path19601"
      d="m 205.90174,254.5979 c 43.61759,0 81.95279,10.82484 101.77458,33.94203 -7.69137,-20.79647 -21.56874,-38.73789 -39.76437,-51.40896 -18.19623,-12.67106 -39.83696,-19.46397 -62.01021,-19.46397 -22.17293,0 -43.81427,6.79291 -62.0099,19.46397 -18.19563,12.67107 -32.0736,30.61249 -39.76407,51.40896 19.8215,-23.16538 57.96301,-33.94203 101.77397,-33.94203 z"
      style="mix-blend-mode:normal;stroke-width:5.44357"
         />
</svg>
