<svg width="48" height="44" viewBox="0 0 48 44" fill="none" xmlns="http://www.w3.org/2000/svg">
<path d="M47.3735 15.5563L35.3733 26.7113C34.1083 27.8872 32 27.0154 32 25.28V19.3768C19.9521 19.4564 14.8695 22.2572 18.2688 33.4331C18.6423 34.6614 17.1983 35.6124 16.1849 34.8547C12.9377 32.4266 10 27.7822 10 23.0942C10 11.2869 19.7999 8.94384 32 8.87723V2.96975C32 1.23282 34.1098 0.363784 35.3733 1.53847L47.3735 12.6937C48.2085 13.47 48.2092 14.7794 47.3735 15.5563V15.5563ZM32 32.1003V37.75H5.33333V11.5H9.57633C9.711 11.4999 9.84425 11.4731 9.9681 11.421C10.0919 11.3689 10.2038 11.2928 10.297 11.1971C11.5431 9.92001 12.9834 8.90922 14.5482 8.10646C15.4757 7.6306 15.132 6.25002 14.0861 6.25002H4C1.79083 6.25002 0 8.01287 0 10.1875V39.0625C0 41.2371 1.79083 43 4 43H33.3333C35.5425 43 37.3333 41.2371 37.3333 39.0625V31.7776C37.3333 31.0978 36.6503 30.6238 35.9991 30.8505C35.0861 31.1684 34.1085 31.2634 33.15 31.1275C32.5442 31.0417 32 31.4978 32 32.1003V32.1003Z"/>
</svg>
