<svg width="48" height="43" viewBox="0 0 48 43" fill="none" xmlns="http://www.w3.org/2000/svg">
<path d="M16.6416 17.2579L24.1417 24.3526C24.9323 25.1005 26.25 24.546 26.25 23.4423V19.6878C33.7799 19.7384 36.9566 21.5197 34.832 28.6277C34.5985 29.4089 35.5011 30.0138 36.1344 29.5319C38.164 27.9876 40 25.0337 40 22.0521C40 14.5425 33.8751 13.0523 26.25 13.01V9.25278C26.25 8.14808 24.9314 7.59536 24.1417 8.34247L16.6416 15.4373C16.1197 15.931 16.1193 16.7638 16.6416 17.2579ZM29 27.7801V31.3733H12.3333V14.6781H14.9852C15.0694 14.678 15.1527 14.6609 15.2301 14.6278C15.3075 14.5947 15.3774 14.5463 15.4356 14.4854C16.2144 13.6732 17.1146 13.0303 18.0926 12.5198C18.6723 12.2171 18.4575 11.3391 17.8038 11.3391H11.5C10.1193 11.3391 9 12.4602 9 13.8433V32.2081C9 33.5912 10.1193 34.7123 11.5 34.7123H29.8333C31.2141 34.7123 32.3333 33.5912 32.3333 32.2081V27.5748C32.3333 27.1424 31.9064 26.841 31.4994 26.9852C30.9288 27.1873 30.3178 27.2478 29.7187 27.1614C29.3401 27.1068 29 27.3969 29 27.7801Z"/>
</svg>
