<svg width="48" height="43" viewBox="0 0 48 43" fill="none" xmlns="http://www.w3.org/2000/svg">
<path d="M11.8321 14.5563L23.4452 25.7113C24.6694 26.8872 26.7097 26.0154 26.7097 24.28V18.3768C38.369 18.4564 43.2876 21.2572 39.998 32.4331C39.6365 33.6614 41.034 34.6124 42.0146 33.8547C45.1571 31.4266 48 26.7822 48 22.0942C48 10.2869 38.5162 7.94384 26.7097 7.87723V1.96975C26.7097 0.232823 24.668 -0.636216 23.4452 0.538471L11.8321 11.6937C11.024 12.47 11.0234 13.7794 11.8321 14.5563ZM30.9677 31.1003V36.75H5.16129V10.5H9.26742C9.39774 10.4999 9.5267 10.4731 9.64654 10.421C9.76639 10.3689 9.87466 10.2928 9.96484 10.1971C11.1707 8.92001 12.5646 7.90922 14.0789 7.10646C14.9765 6.6306 14.6439 5.25002 13.6317 5.25002H3.87097C1.73306 5.25002 0 7.01287 0 9.18751V38.0625C0 40.2371 1.73306 42 3.87097 42H32.2581C34.396 42 36.129 40.2371 36.129 38.0625V30.7776C36.129 30.0978 35.468 29.6238 34.8378 29.8505C33.9543 30.1684 33.0082 30.2634 32.0806 30.1275C31.4944 30.0417 30.9677 30.4978 30.9677 31.1003Z"/>
</svg>
