<svg width="48" height="48" viewBox="0 0 48 48" fill="none" xmlns="http://www.w3.org/2000/svg">
<path d="M24.0064 18.0526C27.5207 18.0526 30.3729 20.8821 30.3729 24.3684C30.3729 25.1895 30.2074 25.96 29.9145 26.68L33.6326 30.3684C35.5553 28.7768 37.0705 26.7179 38 24.3684C35.7972 18.8232 30.3602 14.8947 23.9936 14.8947C22.211 14.8947 20.5048 15.2105 18.9259 15.7789L21.6762 18.5074C22.402 18.2168 23.1787 18.0526 24.0064 18.0526ZM11.2733 14.6042L14.1764 17.4842L14.7622 18.0653C12.6485 19.6947 10.9932 21.8674 10 24.3684C12.2028 29.9137 17.6398 33.8421 24.0064 33.8421C25.98 33.8421 27.8645 33.4632 29.5834 32.7811L30.1182 33.3116L33.849 37L35.4661 35.3958L12.8904 13L11.2733 14.6042ZM18.3147 21.5895L20.2883 23.5474C20.2246 23.8126 20.1864 24.0905 20.1864 24.3684C20.1864 26.4653 21.8927 28.1579 24.0064 28.1579C24.2865 28.1579 24.5666 28.12 24.834 28.0568L26.8076 30.0147C25.9545 30.4316 25.0123 30.6842 24.0064 30.6842C20.492 30.6842 17.6398 27.8547 17.6398 24.3684C17.6398 23.3705 17.8945 22.4358 18.3147 21.5895ZM23.8026 20.6042L27.8136 24.5832L27.839 24.3811C27.839 22.2842 26.1328 20.5916 24.0191 20.5916L23.8026 20.6042Z"/>
</svg>
