<?xml version="1.0" encoding="UTF-8" standalone="no"?>
<svg
   height="16"
   width="16"
   viewBox="0 0 16 16"
   version="1.0"
   id="svg4"
   xmlns="http://www.w3.org/2000/svg"
   xmlns:svg="http://www.w3.org/2000/svg">
  <defs
     id="defs8" />
  <path
     d="M 2.9178621,14.978042 H 13.067412 c 0.09625,0 0.174992,-0.07874 0.174992,-0.174992 V 4.4785075 h -2.974868 c -0.2894366,0 -0.5249766,-0.2355395 -0.5249766,-0.5249766 V 0.978663 H 2.9178621 c -0.096246,0 -0.1749918,0.078747 -0.1749918,0.1749923 V 14.80305 c 0,0.09624 0.078744,0.174992 0.1749918,0.174992 z"
     id="path2-3"
     style="color:#000000;block-progression:tb;text-transform:none;text-indent:0"/>
  <path
     d="M 12.994965,4.1285239 10.092544,1.226102 v 2.7274289 c 0,0.096246 0.07875,0.174993 0.174992,0.174993 z"
     id="path4"
     style="color:#000000;block-progression:tb;text-transform:none;text-indent:0"/>
  <path
     opacity="0.64"
     fill="#605E5C"
     d="M 7.2823331,19.436727 4.6025028,16.756612 A 0.42984317,0.42984317 0 0 0 4.3007586,16.631644 h -5.5754361 c -0.2354172,0 -0.4269963,0.191579 -0.4269963,0.426997 v 11.10191 c 0,0.235417 0.1915791,0.426996 0.4269963,0.426996 h 8.2552664 c 0.2354172,0 0.4269963,-0.191579 0.4269963,-0.426996 v -8.42208 c 0,-0.113865 -0.044408,-0.221184 -0.1252521,-0.301744 z m -2.721391,-2.31916 2.3607212,2.360721 H 4.7032738 A 0.14261684,0.14261684 0 0 1 4.5609421,19.335956 Z m 2.4196468,11.185315 h -8.2552664 a 0.14261684,0.14261684 0 0 1 -0.1423317,-0.142331 v -11.10191 c 0,-0.07828 0.064049,-0.142332 0.1423317,-0.142332 h 5.550955 v 2.419647 c 0,0.235417 0.1915791,0.426996 0.4269963,0.426996 h 2.4196474 v 8.397599 c 0,0.07828 -0.06405,0.142331 -0.1423323,0.142331 z"
     id="path6"
     style="fill:#ffffff;stroke-width:0.284665" />
  <path
     style="fill:#ffffff;stroke-width:0.0290756"
     d="m 4.5937379,7.2409372 v -0.836607 h 0.8366075 0.8366069 v 0.836607 0.836607 H 5.4303454 4.5937379 Z"
     id="path862" />
  <path
     style="fill:#ffffff;stroke-width:0.0290756"
     d="m 7.1324072,7.2409372 v -0.836607 h 2.1059429 2.1059419 v 0.836607 0.836607 H 9.2383501 7.1324072 Z"
     id="path901" />
  <path
     style="fill:#ffffff;stroke-width:0.0290756"
     d="M 7.1324072,9.779607 V 8.9429993 H 9.2383501 11.344292 V 9.779607 10.616214 H 9.2383501 7.1324072 Z"
     id="path940" />
  <path
     style="fill:#ffffff;stroke-width:0.0290756"
     d="M 4.5937379,9.779607 V 8.9429993 H 5.4303454 6.2669523 V 9.779607 10.616214 H 5.4303454 4.5937379 Z"
     id="path979" />
  <path
     style="fill:#ffffff;stroke-width:0.0290756"
     d="M 4.5937379,12.318276 V 11.48167 h 0.8366075 0.8366069 v 0.836606 0.836608 H 5.4303454 4.5937379 Z"
     id="path1018" />
  <path
     style="fill:#ffffff;stroke-width:0.0290756"
     d="M 7.1324072,12.318276 V 11.48167 h 2.1059429 2.1059419 v 0.836606 0.836608 H 9.2383501 7.1324072 Z"
     id="path1057" />
</svg>
