<?xml version="1.0" encoding="UTF-8" standalone="no"?>
<svg
   height="16"
   width="16"
   viewBox="0 0 16 16"
   version="1.0"
   id="svg4"
   xmlns="http://www.w3.org/2000/svg"
   xmlns:svg="http://www.w3.org/2000/svg">
  <defs
     id="defs8" />
  <path
     fill="#FFF"
     d="M 2.8964601,14.978042 H 13.04601 c 0.09625,0 0.174992,-0.07874 0.174992,-0.174992 V 4.4785075 h -2.974868 c -0.2894366,0 -0.5249766,-0.2355395 -0.5249766,-0.5249766 V 0.978663 H 2.8964601 c -0.096246,0 -0.1749918,0.078747 -0.1749918,0.1749923 V 14.80305 c 0,0.09624 0.078744,0.174992 0.1749918,0.174992 z"
     id="path2-3"
     style="fill:#107c41;fill-opacity:1;stroke-width:0.349985" />
  <path
     fill="#FFF"
     d="M 12.994965,4.1285239 10.092544,1.226102 v 2.7274289 c 0,0.096246 0.07875,0.174993 0.174992,0.174993 z"
     id="path4"
     style="fill:#107c41;fill-opacity:1;stroke-width:0.349985" />
  <path
     opacity="0.64"
     fill="#605E5C"
     d="M 7.2823331,19.436727 4.6025028,16.756612 A 0.42984317,0.42984317 0 0 0 4.3007586,16.631644 h -5.5754361 c -0.2354172,0 -0.4269963,0.191579 -0.4269963,0.426997 v 11.10191 c 0,0.235417 0.1915791,0.426996 0.4269963,0.426996 h 8.2552664 c 0.2354172,0 0.4269963,-0.191579 0.4269963,-0.426996 v -8.42208 c 0,-0.113865 -0.044408,-0.221184 -0.1252521,-0.301744 z m -2.721391,-2.31916 2.3607212,2.360721 H 4.7032738 A 0.14261684,0.14261684 0 0 1 4.5609421,19.335956 Z m 2.4196468,11.185315 h -8.2552664 a 0.14261684,0.14261684 0 0 1 -0.1423317,-0.142331 v -11.10191 c 0,-0.07828 0.064049,-0.142332 0.1423317,-0.142332 h 5.550955 v 2.419647 c 0,0.235417 0.1915791,0.426996 0.4269963,0.426996 h 2.4196474 v 8.397599 c 0,0.07828 -0.06405,0.142331 -0.1423323,0.142331 z"
     id="path6"
     style="fill:#ffffff;stroke-width:0.284665" />
  <path
     opacity="0.64"
     fill="#605E5C"
     d="M 2.5375895,4.1071009 -0.7887171,0.78044144 A 0.53353759,0.53353759 0 0 0 -1.1632534,0.6253268 h -6.920442 c -0.2922093,0 -0.5300045,0.23779498 -0.5300045,0.530004 V 14.935441 c 0,0.292209 0.2377952,0.530004 0.5300045,0.530004 H 2.1630532 c 0.292209,0 0.5300042,-0.237795 0.5300042,-0.530004 V 4.4816376 c 0,-0.1413344 -0.05512,-0.2745422 -0.1554679,-0.3745367 z M -0.84030409,1.2284714 2.0899126,4.1586885 H -0.66363603 A 0.17702141,0.17702141 0 0 1 -0.84030409,3.98202 Z M 2.1630532,15.112108 H -8.0836954 A 0.17702141,0.17702141 0 0 1 -8.2603633,14.935441 V 1.1553308 c 0,-0.097167 0.079501,-0.17666772 0.1766679,-0.17666772 h 6.8900551 V 3.98202 c 0,0.2922093 0.23779522,0.5300045 0.53000427,0.5300045 H 2.3397212 V 14.935441 c 0,0.09717 -0.0795,0.176667 -0.176668,0.176667 z"
     id="path6-3"
     style="fill:#000000;fill-opacity:0;stroke-width:0.353337" />
  <path
     fill="#134A2C"
     d="m 11.056979,12.892491 h -0.825715 a 0.27523806,0.26249929 0 1 1 0,-0.524998 h 0.825715 a 0.27523806,0.26249929 0 1 1 0,0.524998 z"
     id="path8-0"
     style="fill:#f9f7f7;fill-opacity:1;stroke-width:0.268795" />
  <path
     fill="#185C37"
     d="M 9.3202086,12.892491 H 8.4944944 a 0.27523806,0.26249929 0 1 1 0,-0.524998 h 0.8257142 a 0.27523806,0.26249929 0 1 1 0,0.524998 z"
     id="path10-9"
     style="fill:#f9f7f7;fill-opacity:1;stroke-width:0.268795" />
  <path
     fill="#21A366"
     d="m 11.056979,11.842495 h -0.825715 a 0.27523882,0.2625 0 1 1 0,-0.525 h 0.825715 a 0.27523882,0.2625 0 1 1 0,0.525 z"
     id="path12-3"
     style="fill:#f9f7f7;fill-opacity:1;stroke-width:0.268795" />
  <path
     fill="#107C41"
     d="M 9.3202086,11.842495 H 8.4944944 a 0.27523882,0.2625 0 1 1 0,-0.525 h 0.8257142 a 0.27523882,0.2625 0 1 1 0,0.525 z"
     id="path14-6"
     style="fill:#f9f7f7;fill-opacity:1;stroke-width:0.268795" />
  <path
     fill="#33C481"
     d="m 11.056979,10.792498 h -0.825715 a 0.27523806,0.26249929 0 1 1 0,-0.524998 h 0.825715 a 0.27523806,0.26249929 0 1 1 0,0.524998 z"
     id="path16-0"
     style="fill:#f9f7f7;fill-opacity:1;stroke-width:0.268795" />
  <path
     fill="#21A366"
     d="M 9.3202086,10.792498 H 8.4944944 a 0.27523806,0.26249929 0 1 1 0,-0.524998 h 0.8257142 a 0.27523806,0.26249929 0 1 1 0,0.524998 z"
     id="path18-6"
     style="fill:#f9f7f7;fill-opacity:1;stroke-width:0.268795" />
  <path
     fill="#f9f7f7"
     d="M 4.593841,13.15499 5.6537821,11.575534 4.6827425,10.005 h 0.781401 l 0.5301081,1.004059 c 0.048717,0.09502 0.08202,0.166163 0.1004625,0.212888 h 0.00688 c 0.034957,-0.07612 0.071562,-0.150151 0.1095453,-0.221814 L 6.7781262,10.005 H 7.4951214 L 6.4987603,11.566871 7.5201681,13.15499 H 6.7572104 L 6.1448065,12.052494 a 0.96938808,0.92452213 0 0 1 -0.072939,-0.147256 h -0.0091 a 0.71699484,0.68381034 0 0 1 -0.070731,0.142541 L 5.3614666,13.155 H 4.5935571 Z"
     id="path22-2"
     style="stroke-width:0.268795" />
</svg>
