<svg xmlns="http://www.w3.org/2000/svg" viewBox="0 0 48 48"><path fill="#FFF" d="M13.5 44h29c.275 0 .5-.225.5-.5V14h-8.5c-.827 0-1.5-.673-1.5-1.5V4H13.5c-.275 0-.5.225-.5.5v39c0 .275.225.5.5.5z"/><path fill="#FFF" d="M42.293 13L34 4.707V12.5c0 .275.225.5.5.5h7.793z"/><path opacity=".64" fill="#605E5C" d="M43.56 12.854l-9.414-9.415A1.51 1.51 0 0033.086 3H13.5c-.827 0-1.5.673-1.5 1.5v39c0 .827.673 1.5 1.5 1.5h29c.827 0 1.5-.673 1.5-1.5V13.914c0-.4-.156-.777-.44-1.06zM34 4.707L42.293 13H34.5a.501.501 0 01-.5-.5V4.707zM42.5 44h-29a.501.501 0 01-.5-.5v-39c0-.275.225-.5.5-.5H33v8.5c0 .827.673 1.5 1.5 1.5H43v29.5c0 .275-.225.5-.5.5z"/><path fill="#134A2C" d="M39 31h-3a1 1 0 110-2h3a1 1 0 110 2z"/><path fill="#185C37" d="M32 31h-3a1 1 0 110-2h3a1 1 0 110 2z"/><path fill="#21A366" d="M39 27h-3a1 1 0 110-2h3a1 1 0 110 2z"/><path fill="#107C41" d="M32 27h-3a1 1 0 110-2h3a1 1 0 110 2z"/><path fill="#33C481" d="M39 23h-3a1 1 0 110-2h3a1 1 0 110 2z"/><path fill="#21A366" d="M32 23h-3a1 1 0 110-2h3a1 1 0 110 2z"/><path fill="#107C41" d="M6 37h18a2 2 0 002-2V17a2 2 0 00-2-2H6a2 2 0 00-2 2v18a2 2 0 002 2z"/><path fill="#F9F7F7" d="M9.518 32l3.851-6.017L9.841 20h2.839l1.926 3.825c.177.362.298.633.365.811h.025c.127-.29.26-.572.398-.845L17.454 20h2.605l-3.62 5.95L20.15 32h-2.772l-2.225-4.2a3.522 3.522 0 01-.265-.561h-.033a2.605 2.605 0 01-.257.543L12.307 32h-2.79z"/></svg>