<svg xmlns="http://www.w3.org/2000/svg" width="24" height="24" viewBox="0 0 24 24">
<path fill="none" d="M0,0h24v24H0V0z"/>
<rect x="6.4" y="15" width="5.6" height="2"/>
<rect x="6.4" y="11" width="3.8" height="2"/>
<path d="M16.4,14.6h6v-2h-6v-3l-4,4l4,4V14.6z"/>
<g>
	<path d="M18.4,8.4v2.2h2V5c0-1.1-0.9-2-2-2h-4.2c-0.4-1.2-1.5-2-2.8-2S9,1.8,8.6,3H4.4C4.3,3,4.2,3,4,3C3.7,3.1,3.3,3.3,3,3.6
		C2.9,3.8,2.7,4,2.6,4.2C2.5,4.5,2.4,4.7,2.4,5v14c0,0.3,0.1,0.5,0.2,0.8C2.7,20,2.9,20.2,3,20.4c0.3,0.3,0.6,0.5,1,0.5
		c0.1,0,0.3,0,0.4,0h14c1.1,0,2-0.9,2-2v-2.4h-2V19h-14V8.4 M4.4,5.6C4.4,5.3,4.7,5,5,5h4.9c0-0.8,0.7-1.7,1.5-1.7s1.5,0.9,1.5,1.7
		h4.9c0.3,0,0.6,0.3,0.6,0.6v0.8h-14V5.6z"/>
</g>
</svg>
