<svg width="48" height="48" viewBox="0 0 48 48" xmlns="http://www.w3.org/2000/svg">
  <path d="M44.7589 27.7108L39.478 37.8954C39.0671 38.6879 38.4786 39.3455 37.7714 39.8025C37.0641 40.2595 36.2627 40.5 35.4471 40.5H6.28307C4.93244 40.5 4.09091 38.8518 4.77144 37.5393L10.0524 27.3547C10.4633 26.5621 11.0518 25.9045 11.759 25.4475C12.4663 24.9905 13.2677 24.75 14.0833 24.75H43.2474C44.598 24.75 45.4395 26.3983 44.7589 27.7108ZM14.0833 22.125H38V18.1875C38 16.0129 36.433 14.25 34.5 14.25H22.8333L18.1667 9H6.5C4.56698 9 3 10.7629 3 12.9375V35.746L8.03687 26.032C9.28644 23.6221 11.6034 22.125 14.0833 22.125Z"/>
</svg>
