<svg width="48" height="44" viewBox="0 0 48 44" fill="none" xmlns="http://www.w3.org/2000/svg">
<path d="M38.6084 17.9977L31.1083 25.0923C30.3177 25.8402 29 25.2857 29 24.182V20.4275C21.4701 20.4782 18.2934 22.2595 20.418 29.3675C20.6515 30.1486 19.7489 30.7535 19.1156 30.2716C17.086 28.7273 15.25 25.7735 15.25 22.7918C15.25 15.2823 21.3749 13.7921 29 13.7497V9.99252C29 8.88782 30.3186 8.33511 31.1083 9.08222L38.6084 16.1771C39.1303 16.6708 39.1307 17.5035 38.6084 17.9977V17.9977ZM29 28.5198V32.113H12.3333V15.4178H14.9852C15.0694 15.4178 15.1527 15.4007 15.2301 15.3676C15.3075 15.3345 15.3774 15.286 15.4356 15.2252C16.2144 14.4129 17.1146 13.7701 18.0926 13.2595C18.6723 12.9569 18.4575 12.0788 17.8038 12.0788H11.5C10.1193 12.0788 9 13.2 9 14.5831V32.9478C9 34.3309 10.1193 35.4521 11.5 35.4521H29.8333C31.2141 35.4521 32.3333 34.3309 32.3333 32.9478V28.3146C32.3333 27.8822 31.9064 27.5807 31.4994 27.7249C30.9288 27.9271 30.3178 27.9875 29.7187 27.9011C29.3401 27.8465 29 28.1366 29 28.5198V28.5198Z"/>
</svg>
